<?xml version="1.0" standalone="no"?>
<!DOCTYPE svg PUBLIC "-//W3C//DTD SVG 20010904//EN"
 "http://www.w3.org/TR/2001/REC-SVG-20010904/DTD/svg10.dtd">
<svg version="1.0" xmlns="http://www.w3.org/2000/svg"
 width="1024.000000pt" height="1792.000000pt" viewBox="0 0 1024.000000 1792.000000"
 preserveAspectRatio="xMidYMid meet">

<g transform="translate(0.000000,1792.000000) scale(0.100000,-0.100000)"
fill="#000000" stroke="none">
<path d="M3763 14540 c-12 -5 -29 -20 -38 -33 l-15 -24 -49 24 c-84 42 -211
29 -332 -32 -65 -33 -118 -86 -178 -175 -78 -116 -103 -193 -109 -332 -4 -111
-3 -116 44 -223 30 -68 21 -123 -49 -280 -94 -211 -167 -281 -357 -341 -255
-79 -344 -191 -343 -429 1 -134 47 -278 120 -373 l25 -34 -38 -39 c-41 -42
-33 -49 22 -23 39 19 67 63 57 91 -3 10 -28 48 -55 84 -58 80 -88 181 -88 299
0 182 78 303 231 358 212 77 274 109 343 177 41 42 111 163 130 225 4 15 10
20 13 13 10 -27 -58 -201 -106 -270 -52 -74 -79 -98 -216 -191 -49 -34 -103
-73 -120 -87 l-30 -26 39 15 c77 32 232 132 296 193 78 73 107 123 154 264 19
57 40 105 46 107 5 2 10 12 10 22 0 15 15 22 73 35 39 9 128 33 197 54 303 93
555 97 739 11 79 -37 111 -65 111 -97 0 -27 -8 -29 -37 -8 -47 33 -173 57
-298 58 -116 0 -196 -11 -435 -60 -41 -8 -136 -20 -210 -27 -134 -11 -135 -11
-149 -40 -7 -15 -17 -67 -21 -115 -8 -91 -21 -134 -65 -221 -46 -91 -114 -147
-284 -235 -177 -91 -230 -139 -257 -231 -14 -49 -14 -59 0 -107 9 -30 25 -62
36 -72 l20 -18 -15 43 c-22 63 -19 118 11 178 33 67 68 93 243 183 166 85 241
146 289 236 33 62 58 150 70 241 l8 57 18 -74 c38 -149 -1 -300 -102 -404 -59
-60 -87 -78 -231 -144 -170 -78 -220 -137 -221 -257 0 -59 0 -60 55 -113 37
-36 63 -53 80 -53 25 0 25 0 10 30 -8 16 -29 40 -46 52 -60 44 -72 94 -40 165
34 74 61 93 292 202 140 66 197 124 234 242 28 89 33 189 14 280 -7 30 -12 67
-13 84 l-1 30 260 17 c143 10 285 22 316 26 30 4 70 5 89 1 18 -4 44 -3 57 2
34 13 97 11 111 -3 17 -17 15 -87 -2 -94 -8 -3 -46 4 -86 16 -67 20 -72 23
-67 46 5 29 -8 32 -23 5 -15 -30 -12 -69 8 -89 10 -10 50 -23 95 -31 75 -13
80 -13 105 6 25 19 27 25 24 87 -3 60 -1 66 16 66 78 0 127 -35 117 -83 -37
-188 -135 -358 -251 -437 -71 -49 -167 -39 -314 33 -115 56 -226 166 -290 287
-33 62 -51 86 -67 88 -31 5 -47 -30 -39 -87 32 -220 25 -357 -24 -456 -41 -85
-86 -125 -233 -212 -70 -41 -132 -83 -137 -93 -14 -26 -12 -84 2 -98 22 -22
38 -14 36 17 -4 54 39 96 172 169 105 57 154 102 190 175 59 120 66 191 46
457 -12 151 21 -52 39 -245 3 -35 2 -42 -4 -25 l-8 25 -6 -25 c-3 -14 -9 -64
-14 -111 -11 -93 -44 -178 -101 -255 -17 -23 -77 -76 -134 -118 -56 -42 -121
-91 -143 -110 -22 -18 -65 -41 -95 -51 -168 -54 -292 -178 -344 -345 -23 -72
-30 -113 -59 -329 l-13 -94 -97 -51 c-185 -97 -255 -184 -264 -330 -10 -154
40 -269 142 -327 l54 -31 -5 -46 c-26 -225 -86 -486 -164 -718 -33 -97 -88
-342 -120 -539 -26 -151 -131 -611 -160 -701 -32 -94 -169 -274 -209 -274 -8
0 -53 40 -100 88 -84 87 -86 89 -73 116 53 108 -98 192 -251 140 -67 -23 -103
-68 -111 -141 -16 -137 30 -223 118 -223 41 0 45 -2 51 -29 7 -34 37 -64 85
-84 47 -19 123 -102 115 -126 -12 -38 -21 -149 -14 -175 4 -15 34 -56 66 -92
32 -36 74 -93 94 -127 40 -68 65 -87 122 -87 36 0 48 -12 26 -26 -25 -15 -190
-281 -204 -328 -28 -95 -12 -176 36 -176 11 0 38 9 60 21 33 16 46 32 66 77
57 129 74 159 119 205 43 43 51 47 93 47 25 0 51 -4 56 -8 6 -4 29 -45 52 -92
65 -130 128 -204 512 -605 79 -82 155 -166 169 -185 15 -19 50 -61 80 -92 35
-39 52 -64 48 -75 -3 -10 -12 -67 -21 -128 -22 -147 -37 -205 -84 -316 -79
-189 -138 -270 -256 -358 -65 -48 -179 -113 -239 -136 -60 -23 -55 -28 11 -11
138 37 257 116 354 236 83 103 134 198 188 349 47 130 71 237 71 312 0 51 0
52 20 34 24 -22 25 -45 5 -161 -23 -128 -80 -291 -150 -429 -75 -147 -84 -171
-48 -129 44 53 131 214 173 320 53 136 70 205 70 289 l1 70 50 -55 c27 -30 64
-75 81 -100 17 -25 47 -63 65 -84 18 -22 33 -46 33 -53 0 -8 4 -12 9 -9 8 5
91 -85 345 -373 126 -142 127 -143 103 -156 -13 -7 -53 -35 -88 -62 -74 -58
-176 -122 -261 -163 -32 -16 -133 -72 -224 -126 -160 -94 -411 -204 -571 -250
-145 -42 -257 -116 -371 -247 -31 -36 -52 -47 -52 -28 0 6 4 13 10 16 5 3 10
14 10 24 0 32 120 189 227 297 107 109 133 149 61 93 -122 -94 -268 -265 -353
-414 -10 -16 -14 -15 -47 16 -45 43 -65 107 -49 159 17 57 67 125 126 169 64
48 96 64 282 131 78 29 143 55 145 59 2 3 23 21 48 40 25 19 74 62 109 95 35
34 59 52 53 41 -10 -21 -103 -112 -182 -179 l-45 -38 43 23 c102 55 241 199
361 373 49 70 155 265 195 355 34 78 56 161 42 161 -6 0 -18 -23 -88 -180
-108 -238 -296 -480 -458 -590 -67 -45 -237 -127 -345 -166 -90 -32 -207 -106
-255 -161 -102 -115 -98 -260 9 -356 37 -33 41 -42 41 -84 0 -27 7 -57 15 -67
17 -22 17 -20 15 47 -1 44 0 48 17 39 10 -6 50 -13 89 -17 118 -12 228 27 361
127 53 40 69 63 36 51 -10 -4 -54 -29 -97 -55 -44 -27 -102 -55 -130 -63 -83
-25 -226 -16 -226 14 0 5 8 12 18 15 9 3 51 37 92 76 41 39 100 87 130 107 52
35 302 136 490 197 47 16 105 39 130 53 l45 24 -40 -33 c-22 -18 -56 -50 -75
-72 -91 -103 -161 -173 -230 -229 -100 -80 -99 -80 -67 -68 37 14 131 79 189
130 26 23 90 93 142 156 53 62 108 123 123 135 52 40 168 112 299 186 153 85
265 158 312 205 l33 33 27 -35 c69 -88 783 -851 929 -992 164 -158 330 -277
411 -293 43 -9 42 7 -3 103 -19 41 -35 77 -35 79 0 2 -19 34 -41 71 -68 110
-244 337 -419 538 -53 61 -152 180 -220 265 -123 154 -223 273 -352 419 -38
42 -68 80 -68 86 0 5 48 64 106 130 138 158 355 449 424 570 30 54 77 134 104
179 126 210 256 536 325 811 11 44 29 106 40 138 25 71 97 423 110 537 23 196
36 461 35 705 -2 278 1 279 36 25 11 -80 27 -192 37 -250 14 -86 17 -174 17
-495 0 -378 -1 -395 -27 -545 -15 -85 -36 -220 -47 -300 -26 -178 -38 -220
-110 -390 -32 -74 -72 -169 -89 -212 -16 -42 -55 -134 -87 -204 -60 -136 -104
-289 -104 -361 0 -42 5 -49 80 -128 94 -98 94 -91 1 -188 -38 -41 -80 -71
-133 -97 -43 -22 -101 -54 -130 -73 -87 -55 -147 -134 -123 -159 4 -3 41 29
83 71 65 63 97 86 194 134 129 65 198 126 217 192 13 48 5 66 -64 145 -94 107
-94 107 -51 251 20 67 61 176 90 243 30 67 73 166 96 221 23 55 56 129 73 165
l31 65 6 -40 7 -40 2 52 c0 29 8 78 16 110 9 32 27 144 40 248 14 105 32 228
40 275 23 131 35 338 35 641 0 313 -7 411 -51 659 -31 177 -62 307 -125 524
-19 65 -33 120 -31 122 11 12 140 -393 178 -560 16 -70 38 -165 49 -210 36
-150 76 -403 104 -651 3 -27 15 -124 26 -215 44 -372 62 -703 66 -1225 2 -275
5 -539 7 -587 2 -76 0 -85 -13 -73 -31 27 -137 73 -195 85 -96 18 -123 29
-150 61 -22 27 -25 39 -25 112 0 45 9 134 20 197 25 141 37 310 23 334 -7 14
-12 -3 -16 -66 -4 -45 -20 -155 -37 -243 -36 -192 -39 -295 -10 -343 25 -40
69 -68 140 -88 137 -39 156 -46 132 -55 -79 -29 -257 -208 -315 -316 -62 -118
-78 -197 -84 -438 -6 -235 0 -289 48 -384 31 -61 102 -136 120 -125 5 3 9 24
8 47 -2 91 47 361 77 420 22 41 111 134 196 204 37 30 68 59 68 63 0 14 -194
-136 -239 -185 -79 -86 -127 -227 -132 -390 l-3 -78 -28 34 c-16 19 -39 66
-51 104 -20 63 -22 90 -21 265 1 230 14 305 74 427 46 94 118 177 201 233 31
22 73 54 92 72 34 33 36 33 66 19 50 -23 49 -25 -81 -184 l-31 -39 34 18 c95
49 151 120 156 199 1 28 5 222 9 433 4 210 10 382 13 382 4 0 11 -13 17 -28
13 -35 62 -59 137 -68 44 -5 71 -2 127 16 39 12 72 25 74 29 2 3 -33 5 -78 3
-64 -3 -94 1 -138 18 -109 41 -124 77 -49 122 21 13 62 45 92 72 50 46 52 49
24 42 -58 -14 -132 -53 -173 -93 l-42 -40 0 55 c0 30 -5 118 -10 196 -6 77
-17 254 -25 391 -14 217 -52 596 -86 835 -37 267 -130 694 -188 865 -11 33
-25 80 -31 105 -10 42 -28 91 -118 325 -47 124 -198 406 -249 467 -24 27 -43
54 -43 60 0 6 -12 8 -29 5 -15 -3 -32 -2 -37 2 -13 12 -69 31 -159 53 -160 39
-599 33 -985 -13 -203 -24 -230 -29 -230 -41 0 -5 -16 -30 -35 -55 -43 -57
-44 -73 -6 -73 16 0 42 -5 58 -11 l28 -10 -50 -18 c-28 -10 -58 -22 -69 -26
-16 -7 -18 -5 -12 26 l7 34 -20 -25 c-11 -14 -24 -34 -27 -45 -4 -10 -17 -27
-29 -37 -53 -42 -177 -331 -234 -548 -25 -94 -77 -377 -90 -490 -10 -82 -9
-705 1 -715 2 -3 12 46 22 108 13 87 16 164 14 347 -2 229 -1 239 29 385 17
83 39 193 48 245 28 151 71 292 130 422 83 180 128 239 200 257 22 6 65 17 95
26 30 8 67 15 83 15 29 0 29 -1 23 -42 -8 -52 -95 -227 -142 -284 -18 -23 -74
-83 -124 -134 -82 -84 -97 -106 -150 -214 -75 -154 -114 -291 -140 -485 -26
-201 -25 -224 6 -144 13 35 35 131 49 215 32 193 46 242 102 353 46 92 92 158
158 230 129 139 208 259 260 395 20 52 41 100 46 107 8 8 34 12 80 10 79 -2
77 8 28 -132 -130 -373 -219 -555 -359 -735 -231 -298 -315 -473 -340 -712
-13 -132 -14 -688 0 -807 35 -317 41 -397 38 -507 l-3 -121 -40 45 c-22 25
-60 71 -85 102 -100 127 -272 350 -332 430 -35 46 -83 99 -108 117 -98 70
-105 78 -104 121 2 49 45 132 100 189 41 44 41 44 107 41 73 -3 99 11 123 69
38 88 2 163 -76 163 -50 0 -69 -10 -136 -66 -29 -24 -87 -64 -130 -90 -44 -25
-87 -53 -97 -62 -18 -16 -18 -15 -12 13 4 17 9 37 12 45 3 8 9 107 13 220 7
185 11 216 40 318 36 134 101 301 195 502 210 452 272 644 300 925 9 96 23
177 39 225 29 91 100 431 125 602 l18 123 0 -100 c0 -104 15 -157 63 -224 16
-23 18 -38 13 -104 -9 -121 34 -201 120 -222 18 -5 27 -14 27 -26 0 -11 6 -35
14 -53 11 -26 24 -37 60 -49 36 -12 46 -13 46 -3 0 7 12 18 26 25 40 18 286
57 538 86 126 14 233 28 237 31 4 2 74 -7 156 -21 81 -13 193 -32 248 -41 116
-19 170 -38 190 -67 l15 -21 0 21 c0 55 -94 92 -310 124 -74 11 -137 23 -140
26 -3 3 65 3 150 -1 l155 -7 80 39 c71 35 84 45 112 93 71 119 149 336 179
500 22 113 25 435 7 739 -14 242 -4 449 28 542 29 89 84 190 127 235 35 37
123 103 137 103 4 0 -23 -34 -59 -75 -107 -123 -120 -153 -177 -405 -41 -179
-44 -302 -10 -378 27 -60 81 -112 116 -112 62 0 111 86 139 244 8 47 20 94 25
105 10 18 76 53 366 190 72 34 141 69 155 77 14 8 45 24 70 35 88 40 310 193
352 244 43 52 86 136 118 235 41 124 57 209 66 353 4 65 10 120 14 122 13 8
25 -159 25 -345 l-1 -175 -39 -100 c-34 -89 -39 -112 -43 -208 -4 -106 -4
-108 32 -183 43 -90 45 -127 11 -194 -19 -37 -32 -51 -53 -56 -137 -30 -229
-69 -377 -158 -73 -45 -200 -86 -262 -86 -27 0 -65 9 -90 21 -45 22 -65 50
-78 107 -3 18 -21 48 -40 67 -82 88 -174 6 -147 -130 27 -132 143 -246 282
-276 l50 -11 0 -51 c0 -50 -31 -190 -126 -562 -24 -93 -77 -305 -119 -470 -42
-165 -84 -329 -95 -365 -10 -36 -21 -77 -24 -92 -4 -19 -14 -28 -36 -33 -36
-8 -78 -61 -62 -77 8 -8 15 -8 24 0 11 9 14 2 16 -34 4 -103 81 -172 252 -225
66 -21 95 -24 235 -24 126 0 173 4 220 19 132 40 280 139 314 210 12 23 21 47
21 52 0 5 9 20 20 34 40 51 15 87 -82 119 -24 8 -40 21 -47 39 -11 28 -62 195
-112 367 -16 54 -42 140 -58 190 -16 49 -53 164 -82 255 -28 91 -64 203 -80
250 -33 101 -109 374 -109 392 0 8 32 22 79 35 85 24 129 44 261 118 47 27 96
54 109 61 28 15 160 29 188 20 11 -4 34 -27 52 -51 57 -80 91 -81 147 -4 61
81 110 76 293 -27 123 -70 243 -115 354 -134 l68 -12 -7 -47 c-20 -144 -123
-588 -248 -1071 -114 -439 -109 -425 -148 -462 -40 -37 -64 -102 -54 -143 10
-40 99 -128 164 -163 110 -58 192 -77 337 -77 180 0 262 20 390 92 117 67 189
130 206 181 6 21 19 48 29 62 42 62 32 94 -35 111 -25 6 -50 20 -58 33 -15 24
-81 209 -163 461 -31 94 -73 215 -94 270 -60 160 -180 525 -216 657 -8 32 -22
64 -30 72 -19 20 -18 36 4 36 35 0 117 33 171 68 62 41 111 111 135 192 21 71
20 108 -5 149 -18 30 -24 33 -52 27 -44 -9 -75 -42 -109 -114 -33 -73 -62 -94
-148 -111 -92 -18 -168 4 -378 112 -121 62 -204 97 -261 112 -104 26 -113 36
-146 169 l-24 99 23 31 c69 94 68 212 -4 356 -44 87 -75 218 -85 360 -5 67
-18 127 -43 205 -35 107 -36 115 -40 296 -4 199 -1 219 53 369 37 104 36 165
-4 261 -32 77 -109 199 -159 251 -59 63 -182 38 -229 -47 -10 -18 -11 -17 -39
2 -45 31 -65 35 -90 18 -53 -35 -83 -149 -58 -218 21 -58 29 -90 44 -172 7
-38 27 -108 45 -155 43 -114 48 -150 35 -256 -31 -236 -95 -432 -183 -562 -64
-93 -151 -153 -297 -203 -58 -20 -118 -41 -135 -47 -51 -19 -164 -32 -315 -37
-81 -2 -171 -11 -205 -19 -33 -9 -127 -50 -210 -91 -82 -41 -154 -75 -159 -75
-15 0 25 40 104 101 83 64 94 78 121 157 38 110 26 138 -121 282 -102 101
-109 110 -153 211 l-47 106 1 129 c0 158 9 214 37 244 28 30 42 77 49 162 5
60 2 77 -27 150 -61 156 -145 237 -348 336 -105 52 -119 56 -195 59 -45 2 -92
-1 -104 -7z m242 -56 c66 -22 74 -30 24 -26 -61 6 -124 -7 -162 -33 l-35 -23
-19 21 c-60 70 -58 66 -32 77 33 14 164 5 224 -16z m-362 0 c48 -11 87 -28
118 -50 50 -36 59 -51 59 -90 0 -14 5 -35 11 -46 7 -13 7 -23 2 -27 -6 -3 -29
-36 -52 -72 -47 -76 -69 -93 -265 -196 -77 -41 -160 -91 -185 -111 -75 -59
-73 -58 -62 -28 21 55 41 83 84 123 55 50 69 58 175 94 46 16 103 40 127 53
76 45 145 140 145 201 0 25 -59 83 -110 110 -47 24 -117 28 -198 11 -177 -37
-286 -127 -356 -296 -15 -36 -24 -51 -21 -35 3 17 17 54 31 84 59 131 161 223
292 265 92 30 112 31 205 10z m2535 -38 c32 -17 64 -51 82 -86 11 -22 9 -22
-22 8 -19 17 -43 32 -54 32 -22 0 -84 -43 -183 -127 -56 -48 -91 -65 -91 -45
0 29 132 181 185 214 36 22 48 22 83 4z m-2469 -48 c42 -21 46 -26 49 -64 2
-37 -3 -47 -44 -93 -53 -59 -79 -74 -219 -126 -128 -47 -191 -94 -232 -171
-17 -33 -36 -77 -42 -99 -11 -42 -36 -84 -44 -75 -3 3 2 50 11 105 21 120 62
201 146 287 72 74 300 191 371 191 38 0 43 3 33 15 -19 23 -97 10 -183 -32
-128 -60 -241 -133 -289 -187 -76 -85 -125 -207 -126 -311 0 -27 -4 -48 -10
-48 -16 0 -23 67 -18 172 5 93 8 105 49 186 52 102 152 211 221 242 101 44
246 48 327 8z m458 -11 c28 -15 54 -31 57 -36 4 -5 -7 -3 -23 5 -44 22 -161
29 -217 14 -27 -8 -61 -27 -80 -47 l-33 -33 -7 35 c-9 49 -2 61 48 79 67 24
189 16 255 -17z m1758 -1 c18 -13 18 -15 -10 -47 -15 -19 -34 -47 -42 -64 -13
-28 -13 -27 -7 30 6 60 18 95 32 95 5 0 17 -6 27 -14z m-1720 -73 c54 -17 109
-53 124 -82 9 -16 3 -16 -71 6 -133 38 -224 27 -289 -38 l-37 -37 -20 46 c-23
53 -22 61 20 92 52 39 171 44 273 13z m2103 -30 c85 -133 96 -214 44 -328 -48
-106 -54 -149 -53 -385 1 -223 -17 -446 -46 -575 -22 -97 -83 -235 -133 -301
-101 -131 -275 -236 -715 -437 -227 -103 -246 -120 -266 -250 -15 -95 -39
-174 -59 -192 -65 -59 -152 92 -135 234 19 157 77 377 123 468 24 47 121 167
129 159 3 -2 -13 -46 -35 -98 -69 -160 -72 -179 -77 -433 l-5 -230 20 85 c10
47 35 171 55 275 42 220 102 414 137 443 18 14 130 57 244 92 93 29 190 77
231 113 33 29 137 304 185 486 33 128 42 177 45 276 5 119 5 121 -32 215 -44
114 -78 237 -71 256 3 8 12 14 20 14 12 0 14 -5 6 -25 -11 -30 -1 -62 29 -89
11 -11 21 -25 21 -32 0 -7 15 -18 34 -25 19 -7 39 -23 45 -36 13 -28 58 -31
146 -7 33 8 77 13 98 11 30 -4 37 -2 37 12 0 9 -5 22 -12 29 -16 16 -84 15
-133 -2 -51 -18 -73 -11 -48 16 30 33 95 65 146 73 47 6 52 11 41 39 -10 26
-43 19 -166 -38 -65 -30 -118 -52 -118 -49 0 3 8 17 18 31 9 15 22 36 28 47
18 33 61 58 131 76 71 17 84 31 59 64 -11 15 -17 17 -28 8 -7 -6 -39 -21 -70
-33 -39 -14 -79 -41 -127 -86 -122 -113 -91 -33 54 141 21 25 52 34 111 35
l62 0 30 -47z m-2443 -75 c16 -69 169 -194 322 -263 l78 -35 -40 35 c-22 20
-60 49 -84 65 -51 35 -49 36 27 14 121 -35 136 -49 145 -136 3 -41 -3 -47 -24
-22 -20 25 -79 51 -170 76 -70 19 -109 22 -234 23 -133 0 -161 -3 -247 -27
-98 -27 -224 -87 -331 -154 -31 -21 -60 -34 -63 -31 -4 3 19 31 50 61 39 38
87 69 154 101 251 121 344 192 378 284 19 55 29 57 39 9z m396 -13 c54 -19
105 -68 114 -110 l7 -30 -20 31 c-41 64 -101 97 -217 120 l-70 14 70 -5 c39
-2 91 -11 116 -20z m-194 9 c-3 -3 -12 -4 -19 -1 -8 3 -5 6 6 6 11 1 17 -2 13
-5z m79 -45 c117 -21 203 -85 220 -162 8 -39 -2 -45 -26 -14 -27 34 -103 69
-219 101 -131 35 -169 64 -106 79 35 8 70 7 131 -4z m-8 -274 c64 -20 93 -36
127 -69 27 -25 45 -52 45 -65 l0 -22 -32 24 c-100 75 -205 101 -378 94 -164
-7 -293 -41 -614 -161 -39 -14 -72 -24 -74 -21 -9 9 19 32 60 50 24 10 90 45
148 76 198 109 282 130 500 124 113 -2 149 -7 218 -30z m-65 -100 c83 -17 168
-55 202 -89 18 -19 25 -36 25 -66 0 -22 -2 -40 -4 -40 -3 0 -31 15 -63 34 -32
19 -92 45 -133 57 -66 21 -94 24 -240 24 -179 0 -224 -8 -419 -69 -104 -33
-229 -66 -251 -66 -47 0 109 77 254 127 279 94 474 121 629 88z m-83 -285
c-41 -4 -118 -10 -170 -13 l-95 -6 70 13 c39 8 115 13 170 13 l100 0 -75 -7z
m-277 -27 c-7 -2 -19 -2 -25 0 -7 3 -2 5 12 5 14 0 19 -2 13 -5z m697 -498 c0
-39 -23 -79 -87 -154 -52 -60 -89 -145 -77 -176 9 -21 -30 -7 -57 21 -18 19
-24 39 -27 90 -4 60 -2 69 31 122 67 109 79 141 83 221 3 42 10 109 16 149
l11 72 53 -157 c30 -86 54 -171 54 -188z m106 146 c63 -62 119 -122 124 -132
29 -53 -12 -155 -87 -216 -26 -21 -77 -66 -114 -100 -71 -65 -81 -70 -123 -53
-49 18 -25 98 57 190 91 102 96 165 27 362 -44 127 -51 165 -18 103 11 -22 72
-91 134 -154z m-276 -49 c-11 -39 -36 -97 -56 -128 -50 -79 -66 -132 -62 -208
2 -47 0 -62 -9 -59 -7 3 -15 14 -19 25 -3 11 -8 17 -11 14 -3 -3 4 -20 16 -39
24 -39 78 -78 135 -97 38 -12 38 -13 33 -54 -11 -78 -104 -127 -169 -89 -58
34 -78 75 -78 161 0 87 30 202 41 161 l7 -24 1 25 c3 62 35 141 107 261 42 71
78 128 80 126 2 -2 -5 -36 -16 -75z m-640 -97 c76 -55 161 -95 242 -111 67
-14 83 -14 133 -1 l56 14 -6 -31 c-4 -17 -16 -60 -27 -96 -30 -95 -29 -211 3
-275 31 -62 65 -87 127 -93 78 -7 110 10 205 107 75 76 93 89 130 95 23 4 103
35 177 71 89 42 154 67 190 71 l54 7 -50 -59 c-28 -32 -84 -106 -124 -164
-138 -196 -203 -249 -590 -481 -58 -34 -168 -110 -245 -168 -159 -121 -125
-113 -380 -96 -107 6 -145 5 -215 -9 -99 -20 -188 -60 -247 -110 -22 -20 -44
-36 -48 -36 -4 0 -5 29 -1 65 4 38 3 65 -3 65 -11 0 -41 -84 -41 -115 0 -35
-20 -45 -94 -45 -89 0 -235 -18 -294 -35 l-44 -14 6 32 c4 18 18 97 31 177 40
237 99 365 206 446 78 60 100 69 234 93 150 28 207 48 282 99 77 52 119 101
157 182 28 59 31 76 34 190 3 68 0 161 -6 205 -6 44 -14 104 -18 133 l-6 52
64 -66 c34 -36 83 -81 108 -99z m2154 -4 c-42 -39 -77 -58 -180 -98 -117 -45
-207 -74 -194 -60 3 3 46 18 95 35 99 33 186 79 267 141 29 22 55 37 58 34 3
-3 -18 -26 -46 -52z m-2335 -218 c2 -182 -129 -358 -304 -408 -27 -8 -63 -17
-80 -21 l-30 -7 30 25 c17 13 66 50 111 81 173 121 252 253 255 425 2 75 2 76
9 27 5 -27 9 -82 9 -122z m3020 32 c0 -5 -4 -1 -9 10 -8 18 -9 18 -9 -5 -1
-14 6 -61 14 -105 18 -91 24 -240 12 -270 -9 -20 -9 -20 7 0 27 33 39 95 32
173 -4 40 -11 85 -17 99 -18 48 -1 35 24 -19 50 -106 43 -194 -18 -255 -18
-18 -35 -39 -38 -47 -13 -33 60 -234 105 -289 28 -36 30 -43 24 -90 -5 -37 -3
-48 4 -37 5 8 10 32 10 53 0 20 3 37 7 37 45 0 168 -47 303 -115 154 -77 253
-115 342 -130 36 -6 36 -6 22 -33 -7 -15 -14 -39 -14 -54 0 -36 -19 -36 -136
-2 -86 24 -126 42 -337 153 -80 41 -108 51 -148 51 -46 0 -54 -4 -103 -50 -29
-27 -58 -50 -64 -50 -6 0 -24 16 -39 36 -78 103 -198 86 -463 -64 -57 -32
-184 -85 -232 -97 l-28 -7 0 60 0 59 68 22 c37 11 119 51 182 87 162 94 161
94 247 110 163 31 171 36 203 127 33 93 21 228 -31 350 -23 56 -18 96 31 243
19 55 27 97 24 122 -3 32 -2 31 11 -13 8 -27 14 -54 14 -60z m-1232 -1 c-3 -3
-12 -4 -19 -1 -8 3 -5 6 6 6 11 1 17 -2 13 -5z m-95 -57 c-71 -27 -128 -79
-195 -180 -45 -67 -66 -111 -101 -220 -24 -75 -50 -168 -56 -205 -18 -99 -7
-345 19 -442 30 -109 28 -126 -28 -221 -92 -157 -146 -224 -322 -399 -185
-184 -234 -243 -273 -331 -38 -88 -40 -108 -15 -135 41 -43 61 -33 197 99 70
67 169 153 220 191 92 68 145 127 208 231 40 65 51 95 68 180 l14 70 1 -65 c1
-87 -50 -329 -91 -432 l-33 -83 -55 -6 c-30 -3 -68 -13 -85 -22 -59 -30 -143
-116 -172 -175 l-29 -57 -119 5 c-66 3 -224 5 -352 5 -231 0 -232 0 -214 20
10 11 39 56 64 100 60 105 240 304 330 365 38 26 130 79 206 119 244 128 333
229 411 465 28 85 24 158 -14 239 -35 73 -75 107 -127 107 -74 0 -100 -34
-477 -612 -62 -95 -155 -227 -207 -293 -52 -66 -128 -163 -169 -215 -40 -52
-111 -136 -158 -186 -47 -50 -89 -101 -92 -112 -4 -11 -17 -22 -29 -25 -60
-14 -176 -28 -207 -25 l-35 3 75 54 c203 147 364 349 470 591 86 196 159 337
207 395 26 33 98 97 158 143 176 132 271 226 354 348 121 178 263 392 334 504
37 58 87 131 112 162 49 63 53 64 185 65 l75 0 -53 -20z m-789 -183 c-15 -24
-17 -25 -24 -8 -12 30 -10 34 16 34 25 0 25 0 8 -26z m600 -49 c-15 -30 -29
-53 -31 -51 -4 5 46 106 53 106 3 0 -7 -25 -22 -55z m218 -67 c-16 -105 -32
-180 -37 -175 -3 3 4 60 16 127 11 67 20 124 20 127 0 4 3 4 6 0 3 -3 1 -38
-5 -79z m1228 -83 c-2 -25 -38 104 -37 135 0 25 5 11 19 -45 10 -44 18 -84 18
-90z m-1507 -15 l-27 -95 1 -345 1 -345 -20 105 c-30 159 -29 442 1 565 24 94
63 218 68 213 1 -2 -9 -46 -24 -98z m-364 -132 c-63 -75 -239 -213 -364 -287
-104 -62 -266 -141 -292 -141 -33 0 212 177 383 278 66 39 163 100 215 136 52
36 97 66 99 66 2 0 -17 -24 -41 -52z m-25 -95 c-29 -46 -118 -156 -159 -196
-22 -20 -79 -67 -129 -102 -49 -36 -85 -65 -81 -65 12 0 105 58 134 84 12 10
22 15 22 10 0 -11 -102 -90 -193 -149 -72 -47 -182 -172 -241 -274 -24 -42
-67 -132 -96 -201 -92 -221 -181 -358 -326 -505 -43 -44 -106 -98 -139 -119
-33 -22 -77 -55 -98 -74 l-39 -34 -24 23 c-27 26 -47 88 -38 115 10 28 56 74
74 74 8 0 51 21 95 46 98 57 272 228 344 338 80 123 149 268 176 370 37 139
20 161 -83 110 -59 -29 -105 -78 -204 -216 -38 -54 -90 -120 -115 -148 -113
-125 -224 -135 -289 -24 -23 40 -26 53 -22 107 6 71 29 122 83 185 50 58 97
79 234 108 173 37 245 59 371 114 63 27 120 50 127 50 6 0 71 27 144 60 160
73 301 165 406 265 43 41 79 74 81 75 1 0 -5 -12 -15 -27z m950 -131 c8 -15
17 -39 20 -53 4 -15 21 -40 39 -57 31 -31 51 -40 136 -62 38 -10 41 -12 27
-26 -8 -9 -15 -33 -15 -55 0 -36 -2 -39 -27 -39 -38 1 -108 34 -160 76 -72 59
-126 176 -108 233 12 40 65 30 88 -17z m2163 23 c11 -28 -19 -117 -60 -178
-33 -50 -53 -68 -104 -94 -35 -18 -74 -33 -87 -33 -19 0 -24 7 -30 46 -8 53
-6 55 55 77 82 31 110 54 137 115 13 31 29 63 35 70 14 17 47 15 54 -3z
m-2932 -147 c14 -29 28 -73 32 -98 17 -132 -104 -374 -240 -479 -55 -43 -186
-121 -295 -176 -125 -63 -352 -290 -466 -465 -30 -46 -55 -88 -55 -92 0 -5
-30 -8 -66 -8 l-67 0 84 88 c164 170 456 549 603 782 144 229 263 404 306 453
39 44 45 47 90 47 l49 0 25 -52z m-1101 -124 c59 -4 104 -11 101 -15 -3 -5
-47 -9 -97 -9 -164 -1 -331 -32 -427 -80 -19 -10 -50 -21 -69 -25 -21 -4 -29
-10 -22 -15 9 -5 2 -16 -21 -35 -29 -24 -33 -26 -36 -10 -9 41 177 165 278
186 47 9 165 10 293 3z m67 -38 c0 -8 -125 -48 -207 -66 -172 -38 -239 -68
-309 -142 -54 -57 -80 -102 -98 -170 -8 -30 -23 -73 -35 -96 -28 -55 -29 -90
-2 -144 38 -79 111 -128 192 -128 35 0 133 34 188 67 25 14 94 74 152 132 101
100 110 113 169 234 34 70 64 127 66 127 9 0 -72 -204 -106 -265 -135 -249
-369 -485 -479 -485 -99 0 -157 40 -195 136 -23 57 -26 79 -25 162 1 56 9 132
21 179 10 46 16 88 12 95 -5 8 -2 9 9 5 21 -8 21 3 3 48 -19 45 -50 46 -86 4
-16 -20 -40 -34 -65 -40 l-40 -8 38 2 c34 3 37 1 37 -24 0 -53 -12 -89 -29
-89 -10 0 -50 -21 -89 -46 -41 -26 -102 -54 -144 -66 -101 -28 -160 -60 -213
-115 l-45 -48 0 33 c0 30 -2 32 -21 22 -29 -16 -34 -37 -20 -88 6 -25 10 -46
8 -48 -10 -10 -74 46 -94 81 -29 51 -29 83 -1 125 32 46 66 68 117 76 l44 7
-6 -71 c-4 -39 -10 -79 -13 -89 -5 -13 -4 -15 4 -8 6 6 17 46 24 90 l14 80 99
50 c186 95 300 158 335 185 19 15 60 40 90 55 30 15 89 50 130 78 100 67 205
104 364 128 72 10 145 23 161 28 35 11 45 12 45 7z m-694 -170 c-7 -30 -55
-49 -175 -71 -149 -27 -218 -16 -232 37 -7 26 -5 27 44 33 63 9 361 32 366 28
2 -1 1 -13 -3 -27z m4433 -197 c38 -118 93 -279 122 -359 28 -80 66 -192 84
-250 18 -58 46 -145 64 -193 26 -75 111 -356 111 -370 0 -2 -129 -7 -287 -10
-159 -4 -319 -11 -358 -16 -38 -5 -93 -12 -121 -16 l-51 -7 33 123 c86 317
229 888 269 1081 48 225 53 244 60 236 3 -2 36 -101 74 -219z m-3703 103 c-84
-168 -245 -345 -369 -409 -136 -69 -295 3 -285 128 3 42 4 43 15 19 6 -14 29
-43 52 -64 36 -35 47 -40 99 -44 104 -7 177 48 310 234 92 130 143 187 184
207 18 9 34 17 36 17 1 0 -18 -39 -42 -88z m-1166 61 c0 -10 -23 -65 -51 -123
-28 -58 -56 -116 -62 -129 -8 -16 -30 -30 -66 -42 -67 -23 -119 -62 -137 -103
-13 -30 -13 -28 -14 45 0 151 58 235 225 322 50 25 93 46 98 47 4 0 7 -8 7
-17z m3341 -508 c28 -88 72 -230 99 -315 27 -85 65 -211 85 -280 20 -69 47
-155 60 -191 l23 -67 -167 5 c-187 6 -477 -10 -563 -31 -52 -12 -58 -12 -58 3
0 9 39 165 86 346 168 650 204 792 229 915 15 69 30 129 33 135 6 9 55 -139
173 -520z m-1027 322 c-39 -121 -123 -255 -211 -338 -26 -25 -95 -82 -153
-127 -58 -44 -134 -110 -170 -146 -93 -95 -130 -85 -74 19 56 106 135 205 289
359 169 170 227 238 291 348 l39 66 3 -65 c2 -41 -3 -84 -14 -116z m-2169 98
c39 0 93 4 120 8 l50 8 -55 -24 c-31 -12 -96 -45 -145 -72 -117 -65 -175 -89
-175 -72 0 14 56 136 72 154 7 8 19 10 37 5 14 -4 58 -7 96 -7z m286 -62 c-12
-20 -14 -14 -5 12 4 9 9 14 11 11 3 -2 0 -13 -6 -23z m-101 -209 c-13 -34 -42
-76 -103 -146 -58 -68 -141 -113 -236 -129 -57 -9 -97 -4 -62 9 47 17 236 156
296 219 46 49 77 73 92 73 20 0 21 -3 13 -26z m40 -51 c-11 -39 -26 -111 -35
-159 -31 -179 -107 -517 -126 -560 -10 -25 -19 -53 -19 -62 0 -9 -11 7 -25 35
-26 52 -85 103 -119 103 -51 0 -86 -52 -86 -130 0 -63 20 -105 61 -126 51 -26
115 1 150 65 l20 36 -5 -86 c-16 -252 -94 -492 -316 -974 -105 -227 -149 -342
-191 -500 -26 -94 -31 -138 -39 -305 -9 -192 -21 -270 -42 -270 -5 0 -7 -7 -4
-16 12 -32 -9 -41 -74 -31 -69 11 -74 23 -29 61 33 28 58 33 77 14 9 -9 12 -4
12 23 0 63 -41 78 -83 32 -14 -16 -66 -73 -116 -128 -87 -94 -151 -196 -151
-240 0 -30 -25 -9 -45 39 -19 46 -19 48 -1 94 42 107 23 141 -31 57 -28 -44
-30 -45 -46 -27 -17 18 -16 22 8 73 13 30 25 64 25 77 0 38 -32 23 -57 -27
-28 -56 -29 -57 -43 -32 -9 17 -7 38 10 98 23 83 60 145 146 243 92 105 167
211 196 275 44 99 148 545 198 852 23 143 83 393 116 488 65 186 129 457 139
593 11 149 8 142 70 142 183 0 340 100 429 274 21 42 40 75 42 74 1 -2 -6 -35
-16 -75z m-210 -14 c-39 -33 -195 -143 -252 -175 l-36 -22 13 45 c18 58 36 77
109 113 48 24 169 66 196 69 3 0 -11 -13 -30 -30z m420 -396 c-16 -18 -33 -46
-37 -61 l-7 -27 -7 30 c-9 38 -11 110 -3 117 3 3 23 -1 44 -9 l40 -16 -30 -34z
m1587 51 c6 -17 -64 -91 -128 -133 -34 -23 -65 -41 -70 -41 -33 0 37 98 113
158 40 31 78 39 85 16z m4 -78 c-28 -41 -97 -106 -112 -106 -5 0 132 148 139
149 2 1 -11 -19 -27 -43z m-717 -145 c3 -5 -54 -14 -127 -21 -72 -6 -181 -20
-242 -30 -60 -10 -157 -24 -213 -31 -96 -11 -106 -15 -125 -41 -11 -15 -24
-28 -28 -28 -10 0 -35 41 -42 71 l-7 26 108 6 c59 4 125 12 147 18 74 21 519
47 529 30z m-1363 -150 c16 -16 29 -39 29 -51 0 -23 -45 -70 -66 -70 -36 0
-62 101 -35 134 20 23 39 20 72 -13z m1869 -66 c30 -9 59 -20 63 -24 4 -5 -47
-11 -115 -14 -68 -3 -204 -11 -303 -17 -223 -15 -550 -8 -620 12 l-50 14 110
12 c61 6 189 16 285 22 96 6 202 12 235 14 126 8 340 -3 395 -19z m194 -80 c3
-8 13 -81 22 -162 39 -355 -10 -766 -150 -1253 -14 -48 -35 -148 -136 -645
-48 -237 -98 -397 -188 -605 -77 -177 -259 -563 -371 -785 -55 -110 -101 -204
-101 -210 0 -48 246 393 377 675 162 349 305 743 348 960 13 68 38 133 73 192
19 32 53 105 74 161 62 159 128 337 147 397 21 64 35 137 21 105 -21 -47 -116
-293 -172 -445 -58 -159 -102 -260 -114 -260 -3 0 -3 3 -1 8 3 4 8 44 11 89 4
45 18 124 31 175 91 345 168 678 180 778 31 267 37 446 21 605 -8 82 -13 151
-12 153 8 8 99 -170 127 -246 17 -48 43 -118 57 -157 14 -38 43 -137 64 -220
21 -82 36 -132 33 -110 -11 88 14 -6 30 -116 33 -218 8 -848 -45 -1144 -30
-166 -77 -367 -115 -490 -19 -60 -40 -130 -45 -155 -17 -70 -105 -315 -149
-415 -44 -101 -79 -165 -204 -375 -47 -80 -100 -169 -117 -198 -73 -122 -326
-439 -429 -537 l-31 -29 -17 24 c-10 14 -67 84 -128 155 -61 72 -163 195 -228
275 -64 80 -137 170 -162 200 -26 30 -59 74 -76 97 l-29 42 15 86 c8 48 19
200 25 338 20 479 29 652 39 742 42 363 56 466 91 665 52 295 85 455 125 620
19 74 38 171 44 215 6 44 20 125 31 180 10 55 26 154 35 220 8 66 19 140 25
165 5 25 11 61 15 82 l6 36 132 5 c172 5 348 30 522 72 249 60 289 66 299 40z
m-1181 -11 c107 -13 185 -15 412 -10 154 3 307 8 340 11 l60 4 -74 -19 c-40
-10 -112 -24 -160 -30 -122 -16 -531 -26 -531 -13 0 6 -42 16 -92 22 -115 15
-166 30 -147 42 19 12 41 11 192 -7z m2642 -94 c7 -12 -2 -12 -30 0 -19 8 -19
9 2 9 12 1 25 -3 28 -9z m115 -25 c20 -21 21 -25 6 -25 -26 0 -56 19 -56 35 0
23 24 18 50 -10z m1525 15 c3 -5 -15 -7 -47 -3 -70 8 -74 13 -10 13 28 0 53
-4 57 -10z m-1722 -21 c111 -17 104 -24 -53 -61 -84 -20 -542 -17 -594 3 -47
18 -56 34 -24 42 21 6 128 19 253 31 70 7 337 -2 418 -15z m1585 5 c78 -9 142
-20 142 -24 0 -12 -72 -39 -133 -49 -282 -50 -654 -29 -675 36 -4 16 20 21
154 38 155 18 346 18 512 -1z m277 -4 c3 -5 -1 -10 -9 -10 -8 0 -18 5 -21 10
-3 6 1 10 9 10 8 0 18 -4 21 -10z m-892 -126 c125 -38 524 -26 701 22 115 32
156 39 156 27 0 -5 -15 -31 -33 -57 -60 -84 -163 -146 -304 -182 -236 -62
-485 -17 -623 112 -56 53 -64 83 -29 121 l22 22 29 -24 c16 -14 52 -32 81 -41z
m-1643 23 c52 -21 68 -22 325 -22 224 1 283 4 345 19 116 27 160 31 160 14 0
-20 -43 -75 -82 -105 -214 -162 -635 -161 -813 2 -37 34 -47 79 -23 103 16 16
25 15 88 -11z m-1755 -227 c-7 -58 -20 -134 -29 -170 -8 -36 -19 -105 -26
-155 -6 -49 -29 -164 -51 -255 -77 -313 -165 -804 -189 -1050 -6 -63 -18 -159
-26 -213 -21 -143 -34 -391 -34 -647 0 -216 -12 -418 -28 -459 -6 -16 -17 -6
-73 67 l-65 87 12 120 c7 66 18 196 24 290 6 93 20 214 30 269 11 55 25 170
30 256 13 180 31 306 65 440 13 52 27 120 30 150 14 111 35 175 117 358 32 73
14 57 -29 -26 -56 -105 -89 -210 -102 -317 -6 -49 -24 -144 -40 -210 -35 -147
-38 -169 -51 -375 -8 -122 -19 -197 -41 -285 -16 -66 -36 -178 -44 -250 -22
-197 -36 -285 -46 -279 -5 3 -8 -3 -7 -13 0 -10 0 -34 -1 -53 l-2 -35 -25 28
c-23 28 -24 33 -17 105 12 115 8 258 -13 447 -16 139 -19 243 -18 570 0 453 5
502 69 645 37 83 184 313 292 456 47 64 99 151 208 349 26 47 85 230 85 263 0
3 2 3 5 1 2 -3 -2 -52 -10 -109z m-2178 -925 c42 -28 21 -108 -38 -142 -17
-10 -39 -35 -50 -55 -24 -48 -48 -60 -99 -52 -53 9 -64 30 -65 126 0 70 2 80
25 103 44 44 173 55 227 20z m44 -193 c14 -9 52 -45 84 -79 31 -35 64 -63 72
-63 10 0 4 -13 -19 -38 -19 -21 -43 -53 -54 -70 -10 -18 -21 -32 -25 -32 -4 0
-18 15 -32 34 -14 18 -50 48 -79 67 -29 18 -56 37 -59 43 -15 21 49 156 74
156 7 0 24 -8 38 -18z m1089 -342 c24 -24 24 -30 6 -75 -18 -42 -49 -46 -90
-14 -15 12 -31 17 -38 13 -31 -19 -434 -397 -556 -521 -76 -78 -134 -165 -164
-245 -20 -57 -61 -104 -79 -92 -16 10 -9 58 16 112 13 29 72 124 130 211 153
230 296 365 508 481 65 36 141 84 168 108 57 47 71 50 99 22z m-542 -251 c-2
-4 -35 -34 -73 -66 -39 -32 -81 -69 -93 -81 -26 -26 -35 -27 -53 -6 -11 13 -9
23 11 61 13 24 45 67 70 94 l47 50 47 -22 c25 -13 45 -26 44 -30z m236 -88
c-19 -75 -6 -120 47 -163 98 -79 117 -99 197 -207 88 -119 265 -348 339 -439
46 -57 50 -76 35 -185 l-7 -48 -111 128 c-61 70 -153 180 -204 243 -51 63
-130 158 -175 210 -45 53 -90 111 -99 129 -18 34 -44 169 -53 269 -6 67 -20
58 -29 -19 -8 -70 -17 -71 -16 0 1 44 6 55 44 94 24 25 44 44 45 43 1 0 -5
-25 -13 -55z m-96 -77 c-9 -25 -7 -40 11 -87 40 -109 21 -124 -66 -53 -29 25
-59 46 -66 49 -7 2 2 16 23 33 19 16 51 43 70 61 19 17 36 30 37 29 2 -1 -2
-16 -9 -32z m-100 -150 c53 -40 104 -64 136 -64 16 0 27 -11 40 -36 l17 -36
-23 5 c-13 2 -69 21 -126 41 -118 42 -152 44 -195 14 -19 -12 -6 6 33 45 35
37 66 67 68 67 2 0 24 -16 50 -36z m133 -184 c84 -26 115 -53 249 -217 119
-147 347 -414 443 -519 31 -35 58 -69 58 -76 1 -7 3 -36 4 -65 l2 -52 -40 31
c-22 18 -55 54 -74 80 -19 26 -38 48 -42 48 -7 0 -250 252 -411 426 -119 128
-290 339 -290 357 0 12 36 7 101 -13z m825 -608 c-2 -9 -10 -50 -17 -89 l-12
-72 -39 51 c-33 45 -38 58 -38 107 0 31 3 72 6 92 l6 37 50 -55 c30 -34 47
-61 44 -71z m105 -112 c29 -41 90 -118 134 -170 45 -52 146 -176 226 -275 79
-99 189 -232 244 -296 55 -64 116 -137 135 -162 19 -26 91 -112 160 -193 131
-153 184 -218 313 -377 42 -54 131 -159 195 -234 137 -159 313 -384 366 -468
54 -84 89 -165 71 -165 -8 0 -68 40 -133 89 -179 135 -804 781 -1040 1076 -31
39 -72 86 -92 105 -49 47 -354 391 -465 524 -49 60 -111 133 -137 164 -100
120 -100 120 -103 172 l-3 50 29 -24 c30 -26 250 -281 414 -481 188 -229 430
-518 498 -594 37 -42 113 -128 169 -191 56 -63 129 -144 163 -180 33 -36 77
-85 98 -110 l38 -45 -27 50 c-60 110 -121 188 -344 445 -70 80 -153 179 -186
221 -32 42 -126 155 -209 251 -163 190 -442 528 -490 593 -16 22 -29 49 -28
60 1 16 1 16 -3 3 -8 -27 -19 -22 -54 22 l-32 41 13 95 c7 52 16 91 19 87 4
-5 31 -42 61 -83z"/>
<path d="M6421 12464 c0 -11 3 -14 6 -6 3 7 2 16 -1 19 -3 4 -6 -2 -5 -13z"/>
<path d="M2006 8144 c-10 -25 1 -29 14 -5 6 12 7 21 1 21 -5 0 -12 -7 -15 -16z"/>
<path d="M3884 9845 c6 -259 40 -774 60 -901 l14 -89 1 120 c0 66 -6 219 -14
340 -8 121 -22 333 -31 470 -21 323 -37 355 -30 60z"/>
<path d="M4658 9780 c-4 -19 -15 -100 -23 -180 -18 -157 -40 -266 -79 -375
-13 -38 -34 -107 -45 -151 -22 -88 -138 -369 -218 -529 -28 -55 -53 -113 -57
-128 -4 -17 -11 -25 -18 -21 -7 4 -8 3 -4 -4 7 -12 -98 -213 -143 -272 -14
-19 -48 -68 -75 -108 -61 -91 -185 -219 -248 -256 -32 -18 -58 -26 -80 -24
-30 3 -33 6 -32 33 2 32 47 131 129 280 58 107 35 95 -45 -25 -101 -150 -150
-263 -130 -300 29 -55 107 -44 210 27 87 62 131 104 200 193 78 103 240 358
240 379 0 4 18 35 39 69 84 130 266 597 306 787 8 39 26 115 40 170 27 104 49
318 43 415 -3 51 -4 53 -10 20z"/>
<path d="M3860 13223 c-25 -3 -49 -8 -53 -13 -16 -15 3 -49 32 -55 23 -5 30
-13 35 -40 4 -18 14 -36 22 -39 29 -11 123 -6 134 7 34 40 70 91 70 98 0 5 -9
18 -20 29 -17 17 -32 20 -97 18 -43 -1 -98 -3 -123 -5z m178 -70 c3 -10 -16
-13 -72 -13 -62 0 -76 3 -76 15 0 13 12 15 72 13 46 -2 73 -7 76 -15z"/>
<path d="M3374 10028 c-9 -18 -53 -87 -97 -152 -77 -115 -200 -326 -194 -332
5 -6 69 81 179 244 112 167 133 203 143 245 10 38 -11 35 -31 -5z"/>
<path d="M6380 7243 c-93 -15 -338 -70 -405 -90 -113 -36 -367 -165 -352 -179
2 -2 83 27 179 66 243 96 539 170 684 170 96 0 261 -27 298 -48 41 -23 76 -94
76 -152 0 -71 -27 -181 -51 -206 -12 -13 -19 -32 -17 -46 3 -22 7 -23 68 -22
36 1 112 14 170 28 129 32 221 33 310 5 155 -48 244 -60 540 -69 317 -10 498
-21 765 -50 284 -31 400 -39 715 -50 284 -11 386 -19 701 -56 80 -10 153 -15
162 -11 9 3 17 15 17 26 0 22 -17 27 -125 36 -38 3 -131 13 -205 20 -147 16
-357 30 -690 45 -118 6 -352 21 -520 35 -168 13 -480 34 -695 45 -375 20 -587
43 -700 74 -99 28 -125 28 -235 1 -58 -14 -129 -28 -159 -32 l-54 -6 6 29 c2
16 12 61 21 99 18 82 21 177 5 208 -22 43 -73 87 -118 102 -82 27 -302 43
-391 28z"/>
<path d="M2756 6638 c-2 -7 -12 -44 -21 -83 -24 -102 -215 -516 -300 -650 -45
-71 -162 -188 -214 -214 -69 -35 -234 -82 -310 -88 -70 -5 -83 -3 -166 30
-244 96 -441 101 -510 13 -13 -17 -23 -32 -21 -33 2 -2 35 10 74 27 112 48
199 39 465 -48 l87 -29 -82 -11 c-115 -17 -257 -15 -358 4 -47 8 -121 17 -165
19 -44 2 -111 10 -150 19 -178 40 -278 49 -639 55 -425 7 -446 6 -446 -20 0
-18 10 -19 200 -19 294 0 584 -17 750 -45 366 -61 650 -86 765 -67 221 36 519
142 611 217 116 95 221 263 331 528 84 203 123 318 123 365 0 39 -16 58 -24
30z"/>
<path d="M3191 6134 c0 -11 3 -14 6 -6 3 7 2 16 -1 19 -3 4 -6 -2 -5 -13z"/>
<path d="M3182 6090 c0 -14 2 -19 5 -12 2 6 2 18 0 25 -3 6 -5 1 -5 -13z"/>
</g>
</svg>
