<svg width="1020" height="1362" viewBox="0 0 1020 1362" fill="none" xmlns="http://www.w3.org/2000/svg">
<g clip-path="url(#clip0_2_2)">
<path d="M421.733 0.666636C420.133 1.3333 417.867 3.3333 416.667 5.06664L414.667 8.26664L408.133 5.06664C396.933 -0.533364 380 1.19997 363.867 9.3333C355.2 13.7333 348.133 20.8 340.133 32.6666C329.733 48.1333 326.4 58.4 325.6 76.9333C325.067 91.7333 325.2 92.4 331.467 106.667C335.467 115.733 334.267 123.067 324.933 144C312.4 172.133 302.667 181.467 277.333 189.467C243.333 200 231.467 214.933 231.6 246.667C231.733 264.533 237.867 283.733 247.6 296.4L250.933 300.933L245.867 306.133C240.4 311.733 241.467 312.667 248.8 309.2C254 306.667 257.733 300.8 256.4 297.067C256 295.733 252.667 290.667 249.067 285.867C241.333 275.2 237.333 261.733 237.333 246C237.333 221.733 247.733 205.6 268.133 198.267C296.4 188 304.667 183.733 313.867 174.667C319.333 169.067 328.667 152.933 331.2 144.667C331.733 142.667 332.533 142 332.933 142.933C334.267 146.533 325.2 169.733 318.8 178.933C311.867 188.8 308.267 192 290 204.4C283.467 208.933 276.267 214.133 274 216L270 219.467L275.2 217.467C285.467 213.2 306.133 199.867 314.667 191.733C325.067 182 328.933 175.333 335.2 156.533C337.733 148.933 340.533 142.533 341.333 142.267C342 142 342.667 140.667 342.667 139.333C342.667 137.333 344.667 136.4 352.4 134.667C357.6 133.467 369.467 130.267 378.667 127.467C419.067 115.067 452.667 114.533 477.2 126C487.733 130.933 492 134.667 492 138.933C492 142.533 490.933 142.8 487.067 140C480.8 135.6 464 132.4 447.333 132.267C431.867 132.267 421.2 133.733 389.333 140.267C383.867 141.333 371.2 142.933 361.333 143.867C343.467 145.333 343.333 145.333 341.467 149.2C340.533 151.2 339.2 158.133 338.667 164.533C337.6 176.667 335.867 182.4 330 194C323.867 206.133 314.8 213.6 292.133 225.333C268.533 237.467 261.467 243.867 257.867 256.133C256 262.667 256 264 257.867 270.4C259.067 274.4 261.2 278.667 262.667 280L265.333 282.4L263.333 276.667C260.4 268.267 260.8 260.933 264.8 252.933C269.2 244 273.867 240.533 297.2 228.533C319.333 217.2 329.333 209.067 335.733 197.067C340.133 188.8 343.467 177.067 345.067 164.933L346.133 157.333L348.533 167.2C353.6 187.067 348.4 207.2 334.933 221.067C327.067 229.067 323.333 231.467 304.133 240.267C281.467 250.667 274.8 258.533 274.667 274.533C274.667 282.4 274.667 282.533 282 289.6C286.933 294.4 290.4 296.667 292.667 296.667C296 296.667 296 296.667 294 292.667C292.933 290.533 290.133 287.333 287.867 285.733C279.867 279.867 278.267 273.2 282.533 263.733C287.067 253.867 290.667 251.333 321.467 236.8C340.133 228 347.733 220.267 352.667 204.533C356.4 192.667 357.067 179.333 354.533 167.2C353.6 163.2 352.933 158.267 352.8 156L352.667 152L387.333 149.733C406.4 148.4 425.333 146.8 429.467 146.267C433.467 145.733 438.8 145.6 441.333 146.133C443.733 146.667 447.2 146.533 448.933 145.867C453.467 144.133 461.867 144.4 463.733 146.267C466 148.533 465.733 157.867 463.467 158.8C462.4 159.2 457.333 158.267 452 156.667C443.067 154 442.4 153.6 443.067 150.533C443.733 146.667 442 146.267 440 149.867C438 153.867 438.4 159.067 441.067 161.733C442.4 163.067 447.733 164.8 453.733 165.867C463.733 167.6 464.4 167.6 467.733 165.067C471.067 162.533 471.333 161.733 470.933 153.467C470.533 145.467 470.8 144.667 473.067 144.667C483.467 144.667 490 149.333 488.667 155.733C483.733 180.8 470.667 203.467 455.2 214C445.733 220.533 432.933 219.2 413.333 209.6C398 202.133 383.2 187.467 374.667 171.333C370.267 163.067 367.867 159.867 365.733 159.6C361.6 158.933 359.467 163.6 360.533 171.2C364.8 200.533 363.867 218.8 357.333 232C351.867 243.333 345.867 248.667 326.267 260.267C316.933 265.733 308.667 271.333 308 272.667C306.133 276.133 306.4 283.867 308.267 285.733C311.2 288.667 313.333 287.6 313.067 283.467C312.533 276.267 318.267 270.667 336 260.933C350 253.333 356.533 247.333 361.333 237.6C369.2 221.6 370.133 212.133 367.467 176.667C365.867 156.533 370.267 183.6 372.667 209.333C373.067 214 372.933 214.933 372.133 212.667L371.067 209.333L370.267 212.667C369.867 214.533 369.067 221.2 368.4 227.467C366.933 239.867 362.533 251.2 354.933 261.467C352.667 264.533 344.667 271.6 337.067 277.2C329.6 282.8 320.933 289.333 318 291.867C315.067 294.267 309.333 297.333 305.333 298.667C282.933 305.867 266.4 322.4 259.467 344.667C256.4 354.267 255.467 359.733 251.6 388.533L249.867 401.067L236.933 407.867C212.267 420.8 202.933 432.4 201.733 451.867C200.4 472.4 207.067 487.733 220.667 495.467L227.867 499.6L227.2 505.733C223.733 535.733 215.733 570.533 205.333 601.467C200.933 614.4 193.6 647.067 189.333 673.333C185.867 693.467 171.867 754.8 168 766.8C163.733 779.333 145.467 803.333 140.133 803.333C139.067 803.333 133.067 798 126.8 791.6C115.6 780 115.333 779.733 117.067 776.133C124.133 761.733 104 750.533 83.6 757.467C74.6667 760.533 69.8667 766.533 68.8 776.267C66.6667 794.533 72.8 806 84.5334 806C90 806 90.5334 806.267 91.3334 809.867C92.2667 814.4 96.2667 818.4 102.667 821.067C108.933 823.6 119.067 834.667 118 837.867C116.4 842.933 115.2 857.733 116.133 861.2C116.667 863.2 120.667 868.667 124.933 873.467C129.2 878.267 134.8 885.867 137.467 890.4C142.8 899.467 146.133 902 153.733 902C158.533 902 160.133 903.6 157.2 905.467C153.867 907.467 131.867 942.933 130 949.2C126.267 961.867 128.4 972.667 134.8 972.667C136.267 972.667 139.867 971.467 142.8 969.867C147.2 967.733 148.933 965.6 151.6 959.6C159.2 942.4 161.467 938.4 167.467 932.267C173.2 926.533 174.267 926 179.867 926C183.2 926 186.667 926.533 187.333 927.067C188.133 927.6 191.2 933.067 194.267 939.333C202.933 956.667 211.333 966.533 262.533 1020C273.067 1030.93 283.2 1042.13 285.067 1044.67C287.067 1047.2 291.733 1052.8 295.733 1056.93C300.4 1062.13 302.667 1065.47 302.133 1066.93C301.733 1068.27 300.533 1075.87 299.333 1084C296.4 1103.6 294.4 1111.33 288.133 1126.13C277.6 1151.33 269.733 1162.13 254 1173.87C245.333 1180.27 230.133 1188.93 222.133 1192C214.133 1195.07 214.8 1195.73 223.6 1193.47C242 1188.53 257.867 1178 270.8 1162C281.867 1148.27 288.667 1135.6 295.867 1115.47C302.133 1098.13 305.333 1083.87 305.333 1073.87C305.333 1067.07 305.333 1066.93 308 1069.33C311.2 1072.27 311.333 1075.33 308.667 1090.8C305.6 1107.87 298 1129.6 288.667 1148C278.667 1167.6 277.467 1170.8 282.267 1165.2C288.133 1158.13 299.733 1136.67 305.333 1122.53C312.4 1104.4 314.667 1095.2 314.667 1084L314.8 1074.67L321.467 1082C325.067 1086 330 1092 332.267 1095.33C334.533 1098.67 338.533 1103.73 340.933 1106.53C343.333 1109.47 345.333 1112.67 345.333 1113.6C345.333 1114.67 345.867 1115.2 346.533 1114.8C347.6 1114.13 358.667 1126.13 392.533 1164.53C409.333 1183.47 409.467 1183.6 406.267 1185.33C404.533 1186.27 399.2 1190 394.533 1193.6C384.667 1201.33 371.067 1209.87 359.733 1215.33C355.467 1217.47 342 1224.93 329.867 1232.13C308.533 1244.67 275.067 1259.33 253.733 1265.47C234.4 1271.07 219.467 1280.93 204.267 1298.4C200.133 1303.2 197.333 1304.67 197.333 1302.13C197.333 1301.33 197.867 1300.4 198.667 1300C199.333 1299.6 200 1298.13 200 1296.8C200 1292.53 216 1271.6 230.267 1257.2C244.533 1242.67 248 1237.33 238.4 1244.8C222.133 1257.33 202.667 1280.13 191.333 1300C190 1302.13 189.467 1302 185.067 1297.87C179.067 1292.13 176.4 1283.6 178.533 1276.67C180.8 1269.07 187.467 1260 195.333 1254.13C203.867 1247.73 208.133 1245.6 232.933 1236.67C243.333 1232.8 252 1229.33 252.267 1228.8C252.533 1228.4 255.333 1226 258.667 1223.47C262 1220.93 268.533 1215.2 273.2 1210.8C277.867 1206.27 281.067 1203.87 280.267 1205.33C278.933 1208.13 266.533 1220.27 256 1229.2L250 1234.27L255.733 1231.2C269.333 1223.87 287.867 1204.67 303.867 1181.47C310.4 1172.13 324.533 1146.13 329.867 1134.13C334.4 1123.73 337.333 1112.67 335.467 1112.67C334.667 1112.67 333.067 1115.73 323.733 1136.67C309.333 1168.4 284.267 1200.67 262.667 1215.33C253.733 1221.33 231.067 1232.27 216.667 1237.47C204.667 1241.73 189.067 1251.6 182.667 1258.93C169.067 1274.27 169.6 1293.6 183.867 1306.4C188.8 1310.8 189.333 1312 189.333 1317.6C189.333 1321.2 190.267 1325.2 191.333 1326.53C193.6 1329.47 193.6 1329.2 193.333 1320.27C193.2 1314.4 193.333 1313.87 195.6 1315.07C196.933 1315.87 202.267 1316.8 207.467 1317.33C223.2 1318.93 237.867 1313.73 255.6 1300.4C262.667 1295.07 264.8 1292 260.4 1293.6C259.067 1294.13 253.2 1297.47 247.467 1300.93C241.6 1304.53 233.867 1308.27 230.133 1309.33C219.067 1312.67 200 1311.47 200 1307.47C200 1306.8 201.067 1305.87 202.4 1305.47C203.6 1305.07 209.2 1300.53 214.667 1295.33C220.133 1290.13 228 1283.73 232 1281.07C238.933 1276.4 272.267 1262.93 297.333 1254.8C303.6 1252.67 311.333 1249.6 314.667 1247.73L320.667 1244.53L315.333 1248.93C312.4 1251.33 307.867 1255.6 305.333 1258.53C293.2 1272.27 283.867 1281.6 274.667 1289.07C261.333 1299.73 261.467 1299.73 265.733 1298.13C270.667 1296.27 283.2 1287.6 290.933 1280.8C294.4 1277.73 302.933 1268.4 309.867 1260C316.933 1251.73 324.267 1243.6 326.267 1242C333.2 1236.67 348.667 1227.07 366.133 1217.2C386.533 1205.87 401.467 1196.13 407.733 1189.87L412.133 1185.47L415.733 1190.13C424.933 1201.87 520.133 1303.6 539.6 1322.4C561.467 1343.47 583.6 1359.33 594.4 1361.47C600.133 1362.67 600 1360.53 594 1347.73C591.467 1342.27 589.333 1337.47 589.333 1337.2C589.333 1336.93 586.8 1332.67 583.867 1327.73C574.8 1313.07 551.333 1282.8 528 1256C520.933 1247.87 507.733 1232 498.667 1220.67C482.267 1200.13 468.933 1184.27 451.733 1164.8C446.667 1159.2 442.667 1154.13 442.667 1153.33C442.667 1152.67 449.067 1144.8 456.8 1136C475.2 1114.93 504.133 1076.13 513.333 1060C517.333 1052.8 523.6 1042.13 527.2 1036.13C544 1008.13 561.333 964.667 570.533 928C572 922.133 574.4 913.867 575.867 909.6C579.2 900.133 588.8 853.2 590.533 838C593.6 811.867 595.333 776.533 595.2 744C594.933 706.933 595.333 706.8 600 740.667C601.467 751.333 603.6 766.267 604.933 774C606.8 785.467 607.2 797.2 607.2 840C607.2 890.4 607.067 892.667 603.6 912.667C601.6 924 598.8 942 597.333 952.667C593.867 976.4 592.267 982 582.667 1004.67C578.4 1014.53 573.067 1027.2 570.8 1032.93C568.667 1038.53 563.467 1050.8 559.2 1060.13C551.2 1078.27 545.333 1098.67 545.333 1108.27C545.333 1113.87 546 1114.8 556 1125.33C568.533 1138.4 568.533 1137.47 556.133 1150.4C551.067 1155.87 545.467 1159.87 538.4 1163.33C532.667 1166.27 524.933 1170.53 521.067 1173.07C509.467 1180.4 501.467 1190.93 504.667 1194.27C505.2 1194.67 510.133 1190.4 515.733 1184.8C524.4 1176.4 528.667 1173.33 541.6 1166.93C558.8 1158.27 568 1150.13 570.533 1141.33C572.267 1134.93 571.2 1132.53 562 1122C549.467 1107.73 549.467 1107.73 555.2 1088.53C557.867 1079.6 563.333 1065.07 567.2 1056.13C571.2 1047.2 576.933 1034 580 1026.67C583.067 1019.33 587.467 1009.47 589.733 1004.67L593.867 996L594.667 1001.33L595.6 1006.67L595.867 999.733C595.867 995.867 596.933 989.333 598 985.067C599.2 980.8 601.6 965.867 603.333 952C605.2 938 607.6 921.6 608.667 915.333C611.733 897.867 613.333 870.267 613.333 829.867C613.333 788.133 612.4 775.067 606.533 742C602.4 718.4 598.267 701.067 589.867 672.133C587.333 663.467 585.467 656.133 585.733 655.867C587.2 654.267 604.4 708.267 609.467 730.533C611.6 739.867 614.533 752.533 616 758.533C620.8 778.533 626.133 812.267 629.867 845.333C630.267 848.933 631.867 861.867 633.333 874C639.2 923.6 641.6 967.733 642.133 1037.33C642.4 1074 642.8 1109.2 643.067 1115.6C643.333 1125.73 643.067 1126.93 641.333 1125.33C637.2 1121.73 623.067 1115.6 615.333 1114C602.533 1111.6 598.933 1110.13 595.333 1105.87C592.4 1102.27 592 1100.67 592 1090.93C592 1084.93 593.2 1073.07 594.667 1064.67C598 1045.87 599.6 1023.33 597.733 1020.13C596.8 1018.27 596.133 1020.53 595.6 1028.93C595.067 1034.93 592.933 1049.6 590.667 1061.33C585.867 1086.93 585.467 1100.67 589.333 1107.07C592.667 1112.4 598.533 1116.13 608 1118.8C626.267 1124 628.8 1124.93 625.6 1126.13C615.067 1130 591.333 1153.87 583.6 1168.27C575.333 1184 573.2 1194.53 572.4 1226.67C571.6 1258 572.4 1265.2 578.8 1277.87C582.933 1286 592.4 1296 594.8 1294.53C595.467 1294.13 596 1291.33 595.867 1288.27C595.6 1276.13 602.133 1240.13 606.133 1232.27C609.067 1226.8 620.933 1214.4 632.267 1205.07C637.2 1201.07 641.333 1197.2 641.333 1196.67C641.333 1194.8 615.467 1214.8 609.467 1221.33C598.933 1232.8 592.533 1251.6 591.867 1273.33L591.467 1283.73L587.733 1279.2C585.6 1276.67 582.533 1270.4 580.933 1265.33C578.267 1256.93 578 1253.33 578.133 1230C578.267 1199.33 580 1189.33 588 1173.07C594.133 1160.53 603.733 1149.47 614.8 1142C618.933 1139.07 624.533 1134.8 627.067 1132.4C631.6 1128 631.867 1128 635.867 1129.87C642.533 1132.93 642.4 1133.2 625.067 1154.4L620.933 1159.6L625.467 1157.2C638.133 1150.67 645.6 1141.2 646.267 1130.67C646.4 1126.93 646.933 1101.07 647.467 1072.93C648 1044.93 648.8 1022 649.2 1022C649.733 1022 650.667 1023.73 651.467 1025.73C653.2 1030.4 659.733 1033.6 669.733 1034.8C675.6 1035.47 679.2 1035.07 686.667 1032.67C691.867 1031.07 696.267 1029.33 696.533 1028.8C696.8 1028.4 692.133 1028.13 686.133 1028.4C677.6 1028.8 673.6 1028.27 667.733 1026C653.2 1020.53 651.2 1015.73 661.2 1009.73C664 1008 669.467 1003.73 673.467 1000.13C680.133 994 680.4 993.6 676.667 994.533C668.933 996.4 659.067 1001.6 653.6 1006.93L648 1012.27V1004.93C648 1000.93 647.333 989.2 646.667 978.8C645.867 968.533 644.4 944.933 643.333 926.667C641.467 897.733 636.4 847.2 631.867 815.333C626.933 779.733 614.533 722.8 606.8 700C605.333 695.6 603.467 689.333 602.667 686C601.333 680.4 598.933 673.867 586.933 642.667C580.667 626.133 560.533 588.533 553.733 580.4C550.533 576.8 548 573.2 548 572.4C548 571.6 546.4 571.333 544.133 571.733C542.133 572.133 539.867 572 539.2 571.467C537.467 569.867 530 567.333 518 564.4C496.667 559.2 438.133 560 386.667 566.133C359.6 569.333 356 570 356 571.6C356 572.267 353.867 575.6 351.333 578.933C345.6 586.533 345.467 588.667 350.533 588.667C352.667 588.667 356.133 589.333 358.267 590.133L362 591.467L355.333 593.867C351.6 595.2 347.6 596.8 346.133 597.333C344 598.267 343.733 598 344.533 593.867L345.467 589.333L342.8 592.667C341.333 594.533 339.6 597.2 339.2 598.667C338.667 600 336.933 602.267 335.333 603.6C328.267 609.2 311.733 647.733 304.133 676.667C300.8 689.2 293.867 726.933 292.133 742C290.8 752.933 290.933 836 292.267 837.333C292.533 837.733 293.867 831.2 295.2 822.933C296.933 811.333 297.333 801.067 297.067 776.667C296.8 746.133 296.933 744.8 300.933 725.333C303.2 714.267 306.133 699.6 307.333 692.667C311.067 672.533 316.8 653.733 324.667 636.4C335.733 612.4 341.733 604.533 351.333 602.133C354.267 601.333 360 599.867 364 598.667C368 597.6 372.933 596.667 375.067 596.667C378.933 596.667 378.933 596.8 378.133 602.267C377.067 609.2 365.467 632.533 359.2 640.133C356.8 643.2 349.333 651.2 342.667 658C331.733 669.2 329.733 672.133 322.667 686.533C312.667 707.067 307.467 725.333 304 751.2C300.533 778 300.667 781.067 304.8 770.4C306.533 765.733 309.467 752.933 311.333 741.733C315.6 716 317.467 709.467 324.933 694.667C331.067 682.4 337.2 673.6 346 664C363.2 645.467 373.733 629.467 380.667 611.333C383.333 604.4 386.133 598 386.8 597.067C387.867 596 391.333 595.467 397.467 595.733C408 596 407.733 594.667 401.2 613.333C383.867 663.067 372 687.333 353.333 711.333C322.533 751.067 311.333 774.4 308 806.267C306.267 823.867 306.133 898 308 913.867C312.667 956.133 313.467 966.8 313.067 981.467L312.667 997.6L307.333 991.6C304.4 988.267 299.333 982.133 296 978C282.667 961.067 259.733 931.333 251.733 920.667C247.067 914.533 240.667 907.467 237.333 905.067C224.267 895.733 223.333 894.667 223.467 888.933C223.733 882.4 229.467 871.333 236.8 863.733C242.267 857.867 242.267 857.867 251.067 858.267C260.8 858.667 264.267 856.8 267.467 849.067C272.533 837.333 267.733 827.333 257.333 827.333C250.667 827.333 248.133 828.667 239.2 836.133C235.333 839.333 227.6 844.667 221.867 848.133C216 851.467 210.267 855.2 208.933 856.4C206.533 858.533 206.533 858.4 207.333 854.667C207.867 852.4 208.533 849.733 208.933 848.667C209.333 847.6 210.133 834.4 210.667 819.333C211.6 794.667 212.133 790.533 216 776.933C220.8 759.067 229.467 736.8 242 710C270 649.733 278.267 624.133 282 586.667C283.2 573.867 285.067 563.067 287.2 556.667C291.067 544.533 300.533 499.2 303.867 476.4L306.267 460V473.333C306.267 487.2 308.267 494.267 314.667 503.2C316.8 506.267 317.067 508.267 316.4 517.067C315.2 533.2 320.933 543.867 332.4 546.667C334.8 547.333 336 548.533 336 550.133C336 551.6 336.8 554.8 337.867 557.2C339.333 560.667 341.067 562.133 345.867 563.733C350.667 565.333 352 565.467 352 564.133C352 563.2 353.6 561.733 355.467 560.8C360.8 558.4 393.6 553.2 427.2 549.333C444 547.467 458.267 545.6 458.8 545.2C459.333 544.933 468.667 546.133 479.6 548C490.4 549.733 505.333 552.267 512.667 553.467C528.133 556 535.333 558.533 538 562.4L540 565.2V562.4C540 555.067 527.467 550.133 498.667 545.867C488.8 544.4 480.4 542.8 480 542.4C479.6 542 488.667 542 500 542.533L520.667 543.467L531.333 538.267C540.8 533.6 542.533 532.267 546.267 525.867C555.733 510 566.133 481.067 570.133 459.2C573.067 444.133 573.467 401.2 571.067 360.667C569.2 328.4 570.533 300.8 574.8 288.4C578.667 276.533 586 263.067 591.733 257.067C596.4 252.133 608.133 243.333 610 243.333C610.533 243.333 606.933 247.867 602.133 253.333C587.867 269.733 586.133 273.733 578.533 307.333C573.067 331.2 572.667 347.6 577.2 357.733C580.8 365.733 588 372.667 592.667 372.667C600.933 372.667 607.467 361.2 611.2 340.133C612.267 333.867 613.867 327.6 614.533 326.133C615.867 323.733 624.667 319.067 663.333 300.8C672.933 296.267 682.133 291.6 684 290.533C685.867 289.467 690 287.333 693.333 285.867C705.067 280.533 734.667 260.133 740.267 253.333C746 246.4 751.733 235.2 756 222C761.467 205.467 763.6 194.133 764.8 174.933C765.333 166.267 766.133 158.933 766.667 158.667C768.4 157.6 770 179.867 770 204.667L769.867 228L764.667 241.333C760.133 253.2 759.467 256.267 758.933 269.067C758.4 283.2 758.4 283.467 763.2 293.467C768.933 305.467 769.2 310.4 764.667 319.333C762.133 324.267 760.4 326.133 757.6 326.8C739.333 330.8 727.067 336 707.333 347.867C697.6 353.867 680.667 359.333 672.4 359.333C668.8 359.333 663.733 358.133 660.4 356.533C654.4 353.6 651.733 349.867 650 342.267C649.6 339.867 647.2 335.867 644.667 333.333C633.733 321.6 621.467 332.533 625.067 350.667C628.667 368.267 644.133 383.467 662.667 387.467L669.333 388.933V395.733C669.333 402.4 665.2 421.067 652.533 470.667C649.333 483.067 642.267 511.333 636.667 533.333C631.067 555.333 625.467 577.2 624 582C622.667 586.8 621.2 592.267 620.8 594.267C620.267 596.8 618.933 598 616 598.667C611.2 599.733 605.6 606.8 607.733 608.933C608.8 610 609.733 610 610.933 608.933C612.4 607.733 612.8 608.667 613.067 613.467C613.6 627.2 623.867 636.4 646.667 643.467C655.467 646.267 659.333 646.667 678 646.667C694.8 646.667 701.067 646.133 707.333 644.133C724.933 638.8 744.667 625.6 749.2 616.133C750.8 613.067 752 609.867 752 609.2C752 608.533 753.2 606.533 754.667 604.667C760 597.867 756.667 593.067 743.733 588.8C740.533 587.733 738.4 586 737.467 583.6C736 579.867 729.2 557.6 722.533 534.667C720.4 527.467 716.933 516 714.8 509.333C712.667 502.8 707.733 487.467 703.867 475.333C700.133 463.2 695.333 448.267 693.2 442C688.8 428.533 678.667 392.133 678.667 389.733C678.667 388.667 682.933 386.8 689.2 385.067C700.533 381.867 706.4 379.2 724 369.333C730.267 365.733 736.8 362.133 738.533 361.2C742.267 359.2 759.867 357.333 763.6 358.533C765.067 359.067 768.133 362.133 770.533 365.333C778.133 376 782.667 376.133 790.133 365.867C798.267 355.067 804.8 355.733 829.2 369.467C845.6 378.8 861.6 384.8 876.4 387.333L885.467 388.933L884.533 395.2C881.867 414.4 868.133 473.6 851.467 538C836.267 596.533 836.933 594.667 831.733 599.6C826.4 604.533 823.2 613.2 824.533 618.667C825.867 624 837.733 635.733 846.4 640.4C861.067 648.133 872 650.667 891.333 650.667C915.333 650.667 926.267 648 943.333 638.4C958.933 629.467 968.533 621.067 970.8 614.267C971.6 611.467 973.333 607.867 974.667 606C980.267 597.733 978.933 593.467 970 591.2C966.667 590.4 963.333 588.533 962.267 586.8C960.267 583.6 951.467 558.933 940.533 525.333C936.4 512.8 930.8 496.667 928 489.333C920 468 904 419.333 899.2 401.733C898.133 397.467 896.267 393.2 895.2 392.133C892.667 389.467 892.8 387.333 895.733 387.333C900.4 387.333 911.333 382.933 918.533 378.267C926.8 372.8 933.333 363.467 936.533 352.667C939.333 343.2 939.2 338.267 935.867 332.8C933.467 328.8 932.667 328.4 928.933 329.2C923.067 330.4 918.933 334.8 914.4 344.4C910 354.133 906.133 356.933 894.667 359.2C882.4 361.6 872.267 358.667 844.267 344.267C828.133 336 817.067 331.333 809.467 329.333C795.6 325.867 794.4 324.533 790 306.8L786.8 293.6L789.867 289.467C799.067 276.933 798.933 261.2 789.333 242C783.467 230.4 779.333 212.933 778 194C777.333 185.067 775.6 177.067 772.267 166.667C767.6 152.4 767.467 151.333 766.933 127.2C766.4 100.667 766.8 98 774 78C778.933 64.1333 778.8 56 773.467 43.2C769.2 32.9333 758.933 16.6666 752.267 9.7333C744.4 1.3333 728 4.66664 721.733 16C720.4 18.4 720.267 18.2666 716.533 15.7333C710.533 11.6 707.867 11.0666 704.533 13.3333C697.467 18 693.467 33.2 696.8 42.4C699.6 50.1333 700.667 54.4 702.667 65.3333C703.6 70.4 706.267 79.7333 708.667 86C714.4 101.2 715.067 106 713.333 120.133C709.2 151.6 700.667 177.733 688.933 195.067C680.4 207.467 668.8 215.467 649.333 222.133C641.6 224.8 633.6 227.6 631.333 228.4C624.533 230.933 609.467 232.667 589.333 233.333C578.533 233.6 566.533 234.8 562 235.867C557.6 237.067 545.067 242.533 534 248C523.067 253.467 513.467 258 512.8 258C510.8 258 516.133 252.667 526.667 244.533C537.733 236 539.2 234.133 542.8 223.6C547.867 208.933 546.267 205.2 526.667 186C513.067 172.533 512.133 171.333 506.267 157.867L500 143.733L500.133 126.533C500.133 105.467 501.333 98 505.067 94C508.8 90 510.667 83.7333 511.6 72.4C512.267 64.4 511.867 62.1333 508 52.4C499.867 31.6 488.667 20.8 461.6 7.59997C447.6 0.666636 445.733 0.133303 435.6 -0.266697C429.6 -0.533364 423.333 -0.133364 421.733 0.666636ZM454 8.1333C462.8 11.0666 463.867 12.1333 457.2 11.6C449.067 10.8 440.667 12.5333 435.6 16L430.933 19.0666L428.4 16.2666C420.4 6.9333 420.667 7.46664 424.133 5.99997C428.533 4.1333 446 5.3333 454 8.1333ZM405.733 8.1333C412.133 9.59997 417.333 11.8666 421.467 14.8C428.133 19.6 429.333 21.6 429.333 26.8C429.333 28.6666 430 31.4666 430.8 32.9333C431.733 34.6666 431.733 36 431.067 36.5333C430.267 36.9333 427.2 41.3333 424.133 46.1333C417.867 56.2666 414.933 58.5333 388.8 72.2666C378.533 77.7333 367.467 84.4 364.133 87.0666C354.133 94.9333 354.4 94.8 355.867 90.8C358.667 83.4666 361.333 79.7333 367.067 74.4C374.4 67.7333 376.267 66.6666 390.4 61.8666C396.533 59.7333 404.133 56.5333 407.333 54.8C417.467 48.8 426.667 36.1333 426.667 28C426.667 24.6666 418.8 16.9333 412 13.3333C405.733 10.1333 396.4 9.59997 385.6 11.8666C362 16.8 347.467 28.8 338.133 51.3333C336.133 56.1333 334.933 58.1333 335.333 56C335.733 53.7333 337.6 48.8 339.467 44.8C347.333 27.3333 360.933 15.0666 378.4 9.46664C390.667 5.46664 393.333 5.3333 405.733 8.1333ZM743.733 13.2C748 15.4666 752.267 20 754.667 24.6666C756.133 27.6 755.867 27.6 751.733 23.6C749.2 21.3333 746 19.3333 744.533 19.3333C741.6 19.3333 733.333 25.0666 720.133 36.2666C712.667 42.6666 708 44.9333 708 42.2666C708 38.4 725.6 18.1333 732.667 13.7333C737.467 10.8 739.067 10.8 743.733 13.2ZM414.533 19.6C420.133 22.4 420.667 23.0666 421.067 28.1333C421.333 33.0666 420.667 34.4 415.2 40.5333C408.133 48.4 404.667 50.4 386 57.3333C368.933 63.6 360.533 69.8666 355.067 80.1333C352.8 84.5333 350.267 90.4 349.467 93.3333C348 98.9333 344.667 104.533 343.6 103.333C343.2 102.933 343.867 96.6666 345.067 89.3333C347.867 73.3333 353.333 62.5333 364.533 51.0666C374.133 41.2 404.533 25.6 414 25.6C419.067 25.6 419.733 25.2 418.4 23.6C415.867 20.5333 405.467 22.2666 394 27.8666C376.933 35.8666 361.867 45.6 355.467 52.8C345.333 64.1333 338.8 80.4 338.667 94.2666C338.667 97.8666 338.133 100.667 337.333 100.667C335.2 100.667 334.267 91.7333 334.933 77.7333C335.6 65.3333 336 63.7333 341.467 52.9333C348.4 39.3333 361.733 24.8 370.933 20.6666C384.4 14.8 403.733 14.2666 414.533 19.6ZM475.6 21.0666C479.333 23.0666 482.8 25.2 483.2 25.8666C483.733 26.5333 482.267 26.2666 480.133 25.2C474.267 22.2666 458.667 21.3333 451.2 23.3333C447.6 24.4 443.067 26.9333 440.533 29.6L436.133 34L435.2 29.3333C434 22.8 434.933 21.2 441.6 18.8C450.533 15.6 466.8 16.6666 475.6 21.0666ZM710 21.2C712.4 22.9333 712.4 23.2 708.667 27.4666C706.667 30 704.133 33.7333 703.067 36C701.333 39.7333 701.333 39.6 702.133 32C702.933 24 704.533 19.3333 706.4 19.3333C707.067 19.3333 708.667 20.1333 710 21.2ZM480.667 30.9333C487.867 33.2 495.2 38 497.2 41.8666C498.4 44 497.6 44 487.733 41.0666C470 36 457.867 37.4666 449.2 46.1333L444.267 51.0666L441.6 44.9333C438.533 37.8666 438.667 36.8 444.267 32.6666C451.2 27.4666 467.067 26.8 480.667 30.9333ZM761.067 34.9333C772.4 52.6666 773.867 63.4666 766.933 78.6666C760.533 92.8 759.733 98.5333 759.867 130C760 159.733 757.6 189.467 753.733 206.667C750.8 219.6 742.667 238 736 246.8C722.533 264.267 699.333 278.267 640.667 305.067C610.4 318.8 607.867 321.067 605.2 338.4C603.2 351.067 600 361.6 597.333 364C588.667 371.867 577.067 351.733 579.333 332.8C581.867 311.867 589.6 282.533 595.733 270.4C598.933 264.133 611.867 248.133 612.933 249.2C613.333 249.467 611.2 255.333 608.267 262.267C599.067 283.6 598.667 286.133 598 320L597.333 350.667L600 339.333C601.333 333.067 604.667 316.533 607.333 302.667C612.933 273.333 620.933 247.467 625.6 243.6C628 241.733 642.933 236 658.133 231.333C670.533 227.467 683.467 221.067 688.933 216.267C693.333 212.4 707.2 175.733 713.6 151.467C718 134.4 719.2 127.867 719.6 114.667C720.267 98.8 720.267 98.5333 715.333 86C709.467 70.8 704.933 54.4 705.867 51.8666C706.267 50.8 707.467 50 708.533 50C710.133 50 710.4 50.6666 709.333 53.3333C707.867 57.3333 709.2 61.6 713.2 65.2C714.667 66.6666 716 68.5333 716 69.4666C716 70.4 718 71.8666 720.533 72.8C723.067 73.7333 725.733 75.8666 726.533 77.6C728.267 81.3333 734.267 81.7333 746 78.5333C750.4 77.4666 756.267 76.8 759.067 77.0666C763.067 77.6 764 77.3333 764 75.4666C764 74.2666 763.333 72.5333 762.4 71.6C760.267 69.4666 751.2 69.6 744.667 71.8666C737.867 74.2666 734.933 73.3333 738.267 69.7333C742.267 65.3333 750.933 61.0666 757.733 60C764 59.2 764.667 58.5333 763.2 54.8C761.867 51.3333 757.467 52.2666 741.067 59.8666C732.4 63.8666 725.333 66.8 725.333 66.4C725.333 66 726.4 64.1333 727.733 62.2666C728.933 60.2666 730.667 57.4666 731.467 56C733.867 51.6 739.6 48.2666 748.933 45.8666C758.4 43.6 760.133 41.7333 756.8 37.3333C755.333 35.3333 754.533 35.0666 753.067 36.2666C752.133 37.0666 747.867 39.0666 743.733 40.6666C738.533 42.5333 733.2 46.1333 726.8 52.1333C710.533 67.2 714.667 56.5333 734 33.3333C736.8 30 740.933 28.8 748.8 28.6666H757.067L761.067 34.9333ZM435.333 44.9333C437.467 54.1333 457.867 70.8 478.267 80L488.667 84.6666L483.333 80C480.4 77.3333 475.333 73.4666 472.133 71.3333C465.333 66.6666 465.6 66.5333 475.733 69.4666C491.867 74.1333 493.867 76 495.067 87.6C495.467 93.0666 494.667 93.8666 491.867 90.5333C489.2 87.2 481.333 83.7333 469.2 80.4C459.867 77.8666 454.667 77.4666 438 77.3333C420.267 77.3333 416.533 77.7333 405.067 80.9333C392 84.5333 375.2 92.5333 360.933 101.467C356.8 104.267 352.933 106 352.533 105.6C352 105.2 355.067 101.467 359.2 97.4666C364.4 92.4 370.8 88.2666 379.733 84C413.2 67.8666 425.6 58.4 430.133 46.1333C432.667 38.8 434 38.5333 435.333 44.9333ZM488.133 46.6666C495.333 49.2 502.133 55.7333 503.333 61.3333L504.267 65.3333L501.6 61.2C496.133 52.6666 488.133 48.2666 472.667 45.2L463.333 43.3333L472.667 44C477.867 44.2666 484.8 45.4666 488.133 46.6666ZM462.267 45.4666C461.867 45.8666 460.667 46 459.733 45.6C458.667 45.2 459.067 44.8 460.533 44.8C462 44.6666 462.8 45.0666 462.267 45.4666ZM472.8 51.4666C488.4 54.2666 499.867 62.8 502.133 73.0666C503.2 78.2666 501.867 79.0666 498.667 74.9333C495.067 70.4 484.933 65.7333 469.467 61.4666C452 56.8 446.933 52.9333 455.333 50.9333C460 49.8666 464.667 50 472.8 51.4666ZM471.733 88C480.267 90.6666 484.133 92.8 488.667 97.2C492.267 100.533 494.667 104.133 494.667 105.867V108.8L490.4 105.6C477.067 95.6 463.067 92.1333 440 93.0666C418.133 94 400.933 98.5333 358.133 114.533C352.933 116.4 348.533 117.733 348.267 117.333C347.067 116.133 350.8 113.067 356.267 110.667C359.467 109.333 368.267 104.667 376 100.533C402.4 86 413.6 83.2 442.667 84C457.733 84.2666 462.533 84.9333 471.733 88ZM463.067 101.333C474.133 103.6 485.467 108.667 490 113.2C492.4 115.733 493.333 118 493.333 122C493.333 124.933 493.067 127.333 492.8 127.333C492.4 127.333 488.667 125.333 484.4 122.8C480.133 120.267 472.133 116.8 466.667 115.2C457.867 112.4 454.133 112 434.667 112C410.8 112 404.8 113.067 378.8 121.2C364.933 125.6 348.267 130 345.333 130C339.067 130 359.867 119.733 379.2 113.067C416.4 100.533 442.4 96.9333 463.067 101.333ZM452 139.333C446.533 139.867 436.267 140.667 429.333 141.067L416.667 141.867L426 140.133C431.2 139.067 441.333 138.4 448.667 138.4H462L452 139.333ZM415.067 142.933C414.133 143.2 412.533 143.2 411.733 142.933C410.8 142.533 411.467 142.267 413.333 142.267C415.2 142.267 415.867 142.533 415.067 142.933ZM508 209.333C508 214.533 504.933 219.867 496.4 229.867C489.467 237.867 484.533 249.2 486.133 253.333C487.333 256.133 482.133 254.267 478.533 250.533C476.133 248 475.333 245.333 474.933 238.533C474.4 230.533 474.667 229.333 479.067 222.267C488 207.733 489.6 203.467 490.133 192.8C490.533 187.2 491.467 178.267 492.267 172.933L493.733 163.333L500.8 184.267C504.8 195.733 508 207.067 508 209.333ZM522.133 189.867C530.533 198.133 538 206.133 538.667 207.467C542.533 214.533 537.067 228.133 527.067 236.267C523.6 239.067 516.8 245.067 511.867 249.6C502.4 258.267 501.067 258.933 495.467 256.667C488.933 254.267 492.133 243.6 503.067 231.333C515.2 217.733 515.867 209.333 506.667 183.067C500.8 166.133 499.867 161.067 504.267 169.333C505.733 172.267 513.867 181.467 522.133 189.867ZM485.333 196.4C483.867 201.6 480.533 209.333 477.867 213.467C471.2 224 469.067 231.067 469.6 241.2C469.867 247.467 469.6 249.467 468.4 249.067C467.467 248.667 466.4 247.2 465.867 245.733C465.467 244.267 464.8 243.467 464.4 243.867C464 244.267 464.933 246.533 466.533 249.067C469.733 254.267 476.933 259.467 484.533 262C489.6 263.6 489.6 263.733 488.933 269.2C487.467 279.6 475.067 286.133 466.4 281.067C458.667 276.533 456 271.067 456 259.6C456 248 460 232.667 461.467 238.133L462.4 241.333L462.533 238C462.933 229.733 467.2 219.2 476.8 203.2C482.4 193.733 487.2 186.133 487.467 186.4C487.733 186.667 486.8 191.2 485.333 196.4ZM400 209.333C410.133 216.667 421.467 222 432.267 224.133C441.2 226 443.333 226 450 224.267L457.467 222.4L456.667 226.533C456.133 228.8 454.533 234.533 453.067 239.333C449.067 252 449.2 267.467 453.467 276C457.6 284.267 462.133 287.6 470.4 288.4C480.8 289.333 485.067 287.067 497.733 274.133C507.733 264 510.133 262.267 515.067 261.467C518.133 260.933 528.8 256.8 538.667 252C550.533 246.4 559.2 243.067 564 242.533L571.2 241.6L564.533 249.467C560.8 253.733 553.333 263.6 548 271.333C529.6 297.467 520.933 304.533 469.333 335.467C461.6 340 446.933 350.133 436.667 357.867C415.467 374 420 372.933 386 370.667C371.733 369.867 366.667 370 357.333 371.867C344.133 374.533 332.267 379.867 324.4 386.533C321.467 389.2 318.533 391.333 318 391.333C317.467 391.333 317.333 387.467 317.867 382.667C318.4 377.6 318.267 374 317.467 374C316 374 312 385.2 312 389.333C312 394 309.333 395.333 299.467 395.333C287.6 395.333 268.133 397.733 260.267 400L254.4 401.867L255.2 397.6C255.733 395.2 257.6 384.667 259.333 374C264.667 342.4 272.533 325.333 286.8 314.533C297.2 306.533 300.133 305.333 318 302.133C338 298.4 345.6 295.733 355.6 288.933C365.867 282 371.467 275.467 376.533 264.667C380.267 256.8 380.667 254.533 381.067 239.333C381.467 230.267 381.067 217.867 380.267 212C379.467 206.133 378.4 198.133 377.867 194.267L377.067 187.333L385.6 196.133C390.133 200.933 396.667 206.933 400 209.333ZM687.2 209.867C681.6 215.067 676.933 217.6 663.2 222.933C647.6 228.933 635.6 232.8 637.333 230.933C637.733 230.533 643.467 228.533 650 226.267C663.2 221.867 674.8 215.733 685.6 207.467C689.467 204.533 692.933 202.533 693.333 202.933C693.733 203.333 690.933 206.4 687.2 209.867ZM375.867 238.933C376.133 263.2 358.667 286.667 335.333 293.333C331.733 294.4 326.933 295.6 324.667 296.133L320.667 297.067L324.667 293.733C326.933 292 333.467 287.067 339.467 282.933C362.533 266.8 373.067 249.2 373.467 226.267C373.733 216.267 373.733 216.133 374.667 222.667C375.333 226.267 375.867 233.6 375.867 238.933ZM778.533 234.667C778.533 235.333 778 234.8 777.333 233.333C776.267 230.933 776.133 230.933 776.133 234C776 235.867 776.933 242.133 778 248C780.4 260.133 781.2 280 779.6 284C778.4 286.667 778.4 286.667 780.533 284C784.133 279.6 785.733 271.333 784.8 260.933C784.267 255.6 783.333 249.6 782.533 247.733C780.133 241.333 782.4 243.067 785.733 250.267C792.4 264.4 791.467 276.133 783.333 284.267C780.933 286.667 778.667 289.467 778.267 290.533C776.533 294.933 786.267 321.733 792.267 329.067C796 333.867 796.267 334.8 795.467 341.067C794.8 346 795.067 347.467 796 346C796.667 344.933 797.333 341.733 797.333 338.933C797.333 336.267 797.733 334 798.267 334C804.267 334 820.667 340.267 838.667 349.333C859.2 359.6 872.4 364.667 884.267 366.667C889.067 367.467 889.067 367.467 887.2 371.067C886.267 373.067 885.333 376.267 885.333 378.267C885.333 383.067 882.8 383.067 867.2 378.533C855.733 375.333 850.4 372.933 822.267 358.133C811.6 352.667 807.867 351.333 802.533 351.333C796.4 351.333 795.333 351.867 788.8 358C784.933 361.6 781.067 364.667 780.267 364.667C779.467 364.667 777.067 362.533 775.067 359.867C764.667 346.133 748.667 348.4 713.333 368.4C705.733 372.667 688.8 379.733 682.4 381.333L678.667 382.267V374.267V366.4L687.733 363.467C692.667 362 703.6 356.667 712 351.867C733.6 339.333 733.467 339.333 744.933 337.2C766.667 333.067 767.733 332.4 772 320.267C776.4 307.867 774.8 289.867 767.867 273.6C764.8 266.133 765.467 260.8 772 241.2C774.533 233.867 775.6 228.267 775.2 224.933C774.8 220.667 774.933 220.8 776.667 226.667C777.733 230.267 778.533 233.867 778.533 234.667ZM614.267 234.8C613.867 235.2 612.667 235.333 611.733 234.933C610.667 234.533 611.067 234.133 612.533 234.133C614 234 614.8 234.4 614.267 234.8ZM601.6 242.4C592.133 246 584.533 252.933 575.6 266.4C569.6 275.333 566.8 281.2 562.133 295.733C558.933 305.733 555.467 318.133 554.667 323.067C552.267 336.267 553.733 369.067 557.2 382C561.2 396.533 560.933 398.8 553.467 411.467C541.2 432.4 534 441.333 510.533 464.667C485.867 489.2 479.333 497.067 474.133 508.8C469.067 520.533 468.8 523.2 472.133 526.8C477.6 532.533 480.267 531.2 498.4 513.6C507.733 504.667 520.933 493.2 527.733 488.133C540 479.067 547.067 471.2 555.467 457.333C560.8 448.667 562.267 444.667 564.533 433.333L566.4 424L566.533 432.667C566.667 444.267 559.867 476.533 554.4 490.267L550 501.333L542.667 502.133C538.667 502.533 533.6 503.867 531.333 505.067C523.467 509.067 512.267 520.533 508.4 528.4L504.533 536L488.667 535.333C479.867 534.933 458.8 534.667 441.733 534.667C410.933 534.667 410.8 534.667 413.2 532C414.533 530.533 418.4 524.533 421.733 518.667C429.733 504.667 453.733 478.133 465.733 470C470.8 466.533 483.067 459.467 493.2 454.133C525.733 437.067 537.6 423.6 548 392.133C551.733 380.8 551.2 371.067 546.133 360.267C541.467 350.533 536.133 346 529.2 346C519.333 346 515.867 350.533 465.6 427.6C457.333 440.267 444.933 457.867 438 466.667C431.067 475.467 420.933 488.4 415.467 495.333C410.133 502.267 400.667 513.467 394.4 520.133C388.133 526.8 382.533 533.6 382.133 535.067C381.6 536.533 379.867 538 378.267 538.4C370.267 540.267 354.8 542.133 350.667 541.733L346 541.333L356 534.133C383.067 514.533 404.533 487.6 418.667 455.333C430.133 429.2 439.867 410.4 446.267 402.667C449.733 398.267 459.333 389.733 467.333 383.6C490.8 366 503.467 353.467 514.533 337.2C530.667 313.467 549.6 284.933 559.067 270C564 262.267 570.667 252.533 574 248.4C580.533 240 581.067 239.867 598.667 239.733H608.667L601.6 242.4ZM496.4 266.8C494.4 270 494.133 270.133 493.2 267.867C491.6 263.867 491.867 263.333 495.333 263.333C498.667 263.333 498.667 263.333 496.4 266.8ZM576.4 273.333C574.4 277.333 572.533 280.4 572.267 280.133C571.733 279.467 578.4 266 579.333 266C579.733 266 578.4 269.333 576.4 273.333ZM605.467 282.267C603.333 296.267 601.2 306.267 600.533 305.6C600.133 305.2 601.067 297.6 602.667 288.667C604.133 279.733 605.333 272.133 605.333 271.733C605.333 271.2 605.733 271.2 606.133 271.733C606.533 272.133 606.267 276.8 605.467 282.267ZM769.2 293.333C768.933 296.667 764.133 279.467 764.267 275.333C764.267 272 764.933 273.867 766.8 281.333C768.133 287.2 769.2 292.533 769.2 293.333ZM568.267 295.333L564.667 308L564.8 354L564.933 400L562.267 386C558.267 364.8 558.4 327.067 562.4 310.667C565.6 298.133 570.8 281.6 571.467 282.267C571.6 282.533 570.267 288.4 568.267 295.333ZM519.733 312.933C511.333 322.933 487.867 341.333 471.2 351.2C457.333 359.467 435.733 370 432.267 370C427.867 370 460.533 346.4 483.333 332.933C492.133 327.733 505.067 319.6 512 314.8C518.933 310 524.933 306 525.2 306C525.467 306 522.933 309.2 519.733 312.933ZM516.4 325.6C512.533 331.733 500.667 346.4 495.2 351.733C492.267 354.4 484.667 360.667 478 365.333C471.467 370.133 466.667 374 467.2 374C468.8 374 481.2 366.267 485.067 362.8C486.667 361.467 488 360.8 488 361.467C488 362.933 474.4 373.467 462.267 381.333C452.667 387.6 438 404.267 430.133 417.867C426.933 423.467 421.2 435.467 417.333 444.667C405.067 474.133 393.2 492.4 373.867 512C368.133 517.867 359.733 525.067 355.333 527.867C350.933 530.8 345.067 535.2 342.267 537.733L337.067 542.267L333.867 539.2C330.267 535.733 327.6 527.467 328.8 523.867C330.133 520.133 336.267 514 338.667 514C339.733 514 345.467 511.2 351.333 507.867C364.4 500.267 387.6 477.467 397.2 462.8C407.867 446.4 417.067 427.067 420.667 413.467C425.6 394.933 423.333 392 409.6 398.8C401.733 402.667 395.6 409.2 382.4 427.6C377.333 434.8 370.4 443.6 367.067 447.333C352 464 337.2 465.333 328.533 450.533C325.467 445.2 325.067 443.467 325.6 436.267C326.4 426.8 329.467 420 336.667 411.6C343.333 403.867 349.6 401.067 367.867 397.2C390.933 392.267 400.533 389.333 417.333 382C425.733 378.4 433.333 375.333 434.267 375.333C435.067 375.333 443.733 371.733 453.467 367.333C474.8 357.6 493.6 345.333 507.6 332C513.333 326.533 518.133 322.133 518.4 322C518.533 322 517.733 323.6 516.4 325.6ZM643.067 343.067C644.133 345.067 645.333 348.267 645.733 350.133C646.267 352.133 648.533 355.467 650.933 357.733C655.067 361.867 657.733 363.067 669.067 366C674.133 367.333 674.533 367.6 672.667 369.467C671.6 370.667 670.667 373.867 670.667 376.8C670.667 381.6 670.4 382 667.067 382C662 381.867 652.667 377.467 645.733 371.867C636.133 364 628.933 348.4 631.333 340.8C632.933 335.467 640 336.8 643.067 343.067ZM931.467 340C932.933 343.733 928.933 355.6 923.467 363.733C919.067 370.4 916.4 372.8 909.6 376.267C904.933 378.667 899.733 380.667 898 380.667C895.467 380.667 894.8 379.733 894 374.533C892.933 367.467 893.2 367.2 901.333 364.267C912.267 360.133 916 357.067 919.6 348.933C921.333 344.8 923.467 340.533 924.267 339.6C926.133 337.333 930.533 337.6 931.467 340ZM540.533 359.6C542.4 363.467 544.267 369.333 544.8 372.667C547.067 390.267 530.933 422.533 512.8 436.533C505.467 442.267 488 452.667 473.467 460C456.8 468.4 426.533 498.667 411.333 522C407.333 528.133 404 533.733 404 534.267C404 534.933 400 535.333 395.2 535.333H386.267L397.467 523.6C419.333 500.933 458.267 450.4 477.867 419.333C497.067 388.8 512.933 365.467 518.667 358.933C523.867 353.067 524.667 352.667 530.667 352.667H537.2L540.533 359.6ZM393.733 376.133C401.6 376.667 407.6 377.6 407.2 378.133C406.8 378.8 400.933 379.333 394.267 379.333C372.4 379.467 350.133 383.6 337.333 390C334.8 391.333 330.667 392.8 328.133 393.333C325.333 393.867 324.267 394.667 325.2 395.333C326.4 396 325.467 397.467 322.4 400C318.533 403.2 318 403.467 317.6 401.333C316.4 395.867 341.2 379.333 354.667 376.533C360.933 375.333 376.667 375.2 393.733 376.133ZM402.667 381.2C402.667 382.267 386 387.6 375.067 390C352.133 395.067 343.2 399.067 333.867 408.933C326.667 416.533 323.2 422.533 320.8 431.6C319.733 435.6 317.733 441.333 316.133 444.4C312.4 451.733 312.267 456.4 315.867 463.6C320.933 474.133 330.667 480.667 341.467 480.667C346.133 480.667 359.2 476.133 366.533 471.733C369.867 469.867 379.067 461.867 386.8 454.133C400.267 440.8 401.467 439.067 409.333 422.933C413.867 413.6 417.867 406 418.133 406C419.333 406 408.533 433.2 404 441.333C386 474.533 354.8 506 340.133 506C326.933 506 319.2 500.667 314.133 487.867C311.067 480.267 310.667 477.333 310.8 466.267C310.933 458.8 312 448.667 313.6 442.4C314.933 436.267 315.733 430.667 315.2 429.733C314.533 428.667 314.933 428.533 316.4 429.067C319.2 430.133 319.2 428.667 316.8 422.667C314.267 416.667 310.133 416.533 305.333 422.133C303.2 424.8 300 426.667 296.667 427.467L291.333 428.533L296.4 428.267C300.933 427.867 301.333 428.133 301.333 431.467C301.333 438.533 299.733 443.333 297.467 443.333C296.133 443.333 290.8 446.133 285.6 449.467C280.133 452.933 272 456.667 266.4 458.267C252.933 462 245.067 466.267 238 473.6L232 480V475.6C232 471.6 231.733 471.333 229.2 472.667C225.333 474.8 224.667 477.6 226.533 484.4C227.333 487.733 227.867 490.533 227.6 490.8C226.267 492.133 217.733 484.667 215.067 480C211.2 473.2 211.2 468.933 214.933 463.333C219.2 457.2 223.733 454.267 230.533 453.2L236.4 452.267L235.6 461.733C235.067 466.933 234.267 472.267 233.867 473.6C233.2 475.333 233.333 475.6 234.4 474.667C235.2 473.867 236.667 468.533 237.6 462.667L239.467 452L252.667 445.333C277.467 432.667 292.667 424.267 297.333 420.667C299.867 418.667 305.333 415.333 309.333 413.333C313.333 411.333 321.2 406.667 326.667 402.933C340 394 354 389.067 375.2 385.867C384.8 384.533 394.533 382.8 396.667 382.133C401.333 380.667 402.667 380.533 402.667 381.2ZM310.133 403.867C309.2 407.867 302.8 410.4 286.8 413.333C266.933 416.933 257.733 415.467 255.867 408.4C254.933 404.933 255.2 404.8 261.733 404C270.133 402.8 309.867 399.733 310.533 400.267C310.8 400.4 310.667 402 310.133 403.867ZM901.2 430.133C906.267 445.867 913.6 467.333 917.467 478C921.2 488.667 926.267 503.6 928.667 511.333C931.067 519.067 934.8 530.667 937.2 537.067C940.667 547.067 952 584.533 952 586.4C952 586.667 934.8 587.333 913.733 587.733C892.533 588.267 871.2 589.2 866 589.867C860.933 590.533 853.6 591.467 849.867 592L843.067 592.933L847.467 576.533C858.933 534.267 878 458.133 883.333 432.4C889.733 402.4 890.4 399.867 891.333 400.933C891.733 401.2 896.133 414.4 901.2 430.133ZM407.467 416.4C396.267 438.8 374.8 462.4 358.267 470.933C340.133 480.133 318.933 470.533 320.267 453.867C320.667 448.267 320.8 448.133 322.267 451.333C323.067 453.2 326.133 457.067 329.2 459.867C334 464.533 335.467 465.2 342.4 465.733C356.267 466.667 366 459.333 383.733 434.533C396 417.2 402.8 409.6 408.267 406.933C410.667 405.733 412.8 404.667 413.067 404.667C413.2 404.667 410.667 409.867 407.467 416.4ZM252 408.267C252 409.6 248.933 416.933 245.2 424.667C241.467 432.4 237.733 440.133 236.933 441.867C235.867 444 232.933 445.867 228.133 447.467C219.2 450.533 212.267 455.733 209.867 461.2C208.133 465.2 208.133 464.933 208 455.2C208 435.067 215.733 423.867 238 412.267C244.667 408.933 250.4 406.133 251.067 406C251.6 406 252 407.067 252 408.267ZM697.467 476C701.2 487.733 707.067 506.667 710.667 518C714.267 529.333 719.333 546.133 722 555.333C724.667 564.533 728.267 576 730 580.8L733.067 589.733L710.8 589.067C685.867 588.267 647.2 590.4 635.733 593.2C628.8 594.8 628 594.8 628 592.8C628 591.6 633.2 570.8 639.467 546.667C661.867 460 666.667 441.067 670 424.667C672 415.467 674 407.467 674.4 406.667C675.2 405.467 681.733 425.2 697.467 476ZM560.533 433.067C555.333 449.2 544.133 467.067 532.4 478.133C528.933 481.467 519.733 489.067 512 495.067C504.267 500.933 494.133 509.733 489.333 514.533C476.933 527.2 472 525.867 479.467 512C486.933 497.867 497.467 484.667 518 464.133C540.533 441.467 548.267 432.4 556.8 417.733L562 408.933L562.4 417.6C562.667 423.067 562 428.8 560.533 433.067ZM271.333 420C276.533 420 283.733 419.467 287.333 418.933L294 417.867L286.667 421.067C282.533 422.667 273.867 427.067 267.333 430.667C251.733 439.333 244 442.533 244 440.267C244 438.4 251.467 422.133 253.6 419.733C254.533 418.667 256.133 418.4 258.533 419.067C260.4 419.6 266.267 420 271.333 420ZM309.467 428.267C307.867 430.933 307.6 430.133 308.8 426.667C309.333 425.467 310 424.8 310.267 425.2C310.667 425.467 310.267 426.933 309.467 428.267ZM296 456.133C294.267 460.667 290.4 466.267 282.267 475.6C274.533 484.667 263.467 490.667 250.8 492.8C243.2 494 237.867 493.333 242.533 491.6C248.8 489.333 274 470.8 282 462.4C288.133 455.867 292.267 452.667 294.267 452.667C296.933 452.667 297.067 453.067 296 456.133ZM301.333 462.933C299.867 468.133 297.867 477.733 296.667 484.133C292.533 508 282.4 553.067 279.867 558.8C278.533 562.133 277.333 565.867 277.333 567.067C277.333 568.267 275.867 566.133 274 562.4C270.533 555.467 262.667 548.667 258.133 548.667C251.333 548.667 246.667 555.6 246.667 566C246.667 574.4 249.333 580 254.8 582.8C261.6 586.267 270.133 582.667 274.8 574.133L277.467 569.333L276.8 580.8C274.667 614.4 264.267 646.4 234.667 710.667C220.667 740.933 214.8 756.267 209.2 777.333C205.733 789.867 205.067 795.733 204 818C202.8 843.6 201.2 854 198.4 854C197.733 854 197.467 854.933 197.867 856.133C199.467 860.4 196.667 861.6 188 860.267C178.8 858.8 178.133 857.2 184.133 852.133C188.533 848.4 191.867 847.733 194.4 850.267C195.6 851.467 196 850.8 196 847.2C196 838.8 190.533 836.8 184.933 842.933C183.067 845.067 176.133 852.667 169.467 860C157.867 872.533 149.333 886.133 149.333 892C149.333 896 146 893.2 143.333 886.8C140.8 880.667 140.8 880.4 143.2 874.267C148.8 860 146.267 855.467 139.067 866.667C135.333 872.533 135.067 872.667 132.933 870.267C130.667 867.867 130.8 867.333 134 860.533C135.733 856.533 137.333 852 137.333 850.267C137.333 845.2 133.067 847.2 129.733 853.867C126 861.333 125.867 861.467 124 858.133C122.8 855.867 123.067 853.067 125.333 845.067C128.4 834 133.333 825.733 144.8 812.667C157.067 798.667 167.067 784.533 170.933 776C176.8 762.8 190.667 703.333 197.333 662.4C200.4 643.333 208.4 610 212.8 597.333C221.467 572.533 230 536.4 231.333 518.267C232.8 498.4 232.4 499.333 240.667 499.333C265.067 499.333 286 486 297.867 462.8C300.667 457.2 303.2 452.8 303.467 452.933C303.6 453.2 302.667 457.6 301.333 462.933ZM273.333 464.8C268.133 469.2 247.333 483.867 239.733 488.133L234.933 491.067L236.667 485.067C239.067 477.333 241.467 474.8 251.2 470C257.6 466.8 273.733 461.2 277.333 460.8C277.733 460.8 275.867 462.533 273.333 464.8ZM329.333 517.6C327.2 520 324.933 523.733 324.4 525.733L323.467 529.333L322.533 525.333C321.333 520.267 321.067 510.667 322.133 509.733C322.533 509.333 325.2 509.867 328 510.933L333.333 513.067L329.333 517.6ZM540.933 510.8C541.733 513.067 532.4 522.933 523.867 528.533C519.333 531.6 515.2 534 514.533 534C510.133 534 519.467 520.933 529.6 512.933C534.933 508.8 540 507.733 540.933 510.8ZM541.467 521.2C537.733 526.667 528.533 535.333 526.533 535.333C525.867 535.333 544.133 515.6 545.067 515.467C545.333 515.333 543.6 518 541.467 521.2ZM445.867 540.533C446.267 541.2 438.667 542.4 428.933 543.333C419.333 544.133 404.8 546 396.667 547.333C388.667 548.667 375.733 550.533 368.267 551.467C355.467 552.933 354.133 553.467 351.6 556.933C350.133 558.933 348.4 560.667 347.867 560.667C346.533 560.667 343.2 555.2 342.267 551.2L341.333 547.733L355.733 546.933C363.6 546.4 372.4 545.333 375.333 544.533C385.2 541.733 444.533 538.267 445.867 540.533ZM264.133 560.533C266.267 562.667 268 565.733 268 567.333C268 570.4 262 576.667 259.2 576.667C254.4 576.667 250.933 563.2 254.533 558.8C257.2 555.733 259.733 556.133 264.133 560.533ZM513.333 569.333C517.333 570.533 521.2 572 521.733 572.533C522.267 573.2 515.467 574 506.4 574.4C497.333 574.8 479.2 575.867 466 576.667C436.267 578.667 392.667 577.733 383.333 575.067L376.667 573.2L391.333 571.6C399.467 570.8 416.533 569.467 429.333 568.667C442.133 567.867 456.267 567.067 460.667 566.8C477.467 565.733 506 567.2 513.333 569.333ZM539.2 580C539.6 581.067 540.933 590.8 542.133 601.6C547.333 648.933 540.8 703.733 522.133 768.667C520.267 775.067 517.467 788.4 504 854.667C497.6 886.267 490.933 907.6 478.933 935.333C468.667 958.933 444.4 1010.4 429.467 1040C422.133 1054.67 416 1067.2 416 1068C416 1074.4 448.8 1015.6 466.267 978C487.867 931.467 506.933 878.933 512.667 850C514.4 840.933 517.733 832.267 522.4 824.4C524.933 820.133 529.467 810.4 532.267 802.933C540.533 781.733 549.333 758 551.867 750C554.667 741.467 556.533 731.733 554.667 736C551.867 742.267 539.2 775.067 531.733 795.333C524 816.533 518.133 830 516.533 830C516.133 830 516.133 829.6 516.4 828.933C516.8 828.4 517.467 823.067 517.867 817.067C518.4 811.067 520.267 800.533 522 793.733C534.133 747.733 544.4 703.333 546 690C550.133 654.4 550.933 630.533 548.8 609.333C547.733 598.4 547.067 589.2 547.2 588.933C548.267 587.867 560.4 611.6 564.133 621.733C566.4 628.133 569.867 637.467 571.733 642.667C573.6 647.733 577.467 660.933 580.267 672C583.067 682.933 585.067 689.6 584.667 686.667C583.2 674.933 586.533 687.467 588.667 702.133C593.067 731.2 589.733 815.2 582.667 854.667C578.667 876.8 572.4 903.6 567.333 920C564.8 928 562 937.333 561.333 940.667C559.067 950 547.333 982.667 541.467 996C535.6 1009.47 530.933 1018 514.267 1046C508 1056.67 500.933 1068.53 498.667 1072.4C488.933 1088.67 455.2 1130.93 441.467 1144L437.333 1147.87L435.067 1144.67C433.733 1142.8 426.133 1133.47 418 1124C409.867 1114.4 396.267 1098 387.6 1087.33C379.067 1076.67 369.333 1064.67 366 1060.67C362.533 1056.67 358.133 1050.8 355.867 1047.73L352 1042.13L354 1030.67C355.067 1024.27 356.533 1004 357.333 985.6C360 921.733 361.2 898.667 362.533 886.667C368.133 838.267 370 824.533 374.667 798C381.6 758.667 386 737.333 391.333 715.333C393.867 705.467 396.4 692.533 397.2 686.667C398 680.8 399.867 670 401.333 662.667C402.667 655.333 404.8 642.133 406 633.333C407.067 624.533 408.533 614.667 409.333 611.333C410 608 410.8 603.2 411.333 600.4L412.133 595.6L429.733 594.933C452.667 594.267 476.133 590.933 499.333 585.333C532.533 577.333 537.867 576.533 539.2 580ZM381.733 581.467C396 583.2 406.4 583.467 436.667 582.8C457.2 582.4 477.6 581.733 482 581.333L490 580.8L480.133 583.333C474.8 584.667 465.2 586.533 458.8 587.333C442.533 589.467 388 590.8 388 589.067C388 588.267 382.4 586.933 375.733 586.133C360.4 584.133 353.6 582.133 356.133 580.533C358.667 578.933 361.6 579.067 381.733 581.467ZM734 594C734.933 595.6 733.733 595.6 730 594C727.467 592.933 727.467 592.8 730.267 592.8C731.867 592.667 733.6 593.2 734 594ZM749.333 597.333C752 600.133 752.133 600.667 750.133 600.667C746.667 600.667 742.667 598.133 742.667 596C742.667 592.933 745.867 593.6 749.333 597.333ZM952.667 595.333C953.067 596 950.667 596.267 946.4 595.733C937.067 594.667 936.533 594 945.067 594C948.8 594 952.133 594.533 952.667 595.333ZM723.067 598.133C737.867 600.4 736.933 601.333 716 606.267C704.8 608.933 643.733 608.533 636.8 605.867C630.533 603.467 629.333 601.333 633.6 600.267C636.4 599.467 650.667 597.733 667.333 596.133C676.667 595.2 712.267 596.4 723.067 598.133ZM934.4 597.467C944.8 598.667 953.333 600.133 953.333 600.667C953.333 602.267 943.733 605.867 935.6 607.2C898 613.867 848.4 611.067 845.6 602.4C845.067 600.267 848.267 599.6 866.133 597.333C886.8 594.933 912.267 594.933 934.4 597.467ZM971.333 598C971.733 598.667 971.2 599.333 970.133 599.333C969.067 599.333 967.733 598.667 967.333 598C966.933 597.2 967.467 596.667 968.533 596.667C969.6 596.667 970.933 597.2 971.333 598ZM852.4 614.8C869.067 619.867 922.267 618.267 945.867 611.867C961.2 607.6 966.667 606.667 966.667 608.267C966.667 608.933 964.667 612.4 962.267 615.867C954.267 627.067 940.533 635.333 921.733 640.133C890.267 648.4 857.067 642.4 838.667 625.2C831.2 618.133 830.133 614.133 834.8 609.067L837.733 606.133L841.6 609.333C843.733 611.2 848.533 613.6 852.4 614.8ZM633.333 611.733C640.267 614.533 642.4 614.667 676.667 614.667C706.533 614.533 714.4 614.133 722.667 612.133C738.133 608.533 744 608 744 610.267C744 612.933 738.267 620.267 733.067 624.267C704.533 645.867 648.4 645.733 624.667 624C619.733 619.467 618.4 613.467 621.6 610.267C623.733 608.133 624.933 608.267 633.333 611.733ZM399.333 642C398.4 649.733 396.667 659.867 395.467 664.667C394.4 669.467 392.933 678.667 392 685.333C391.2 691.867 388.133 707.2 385.2 719.333C374.933 761.067 363.2 826.533 360 859.333C359.2 867.733 357.6 880.533 356.533 887.733C353.733 906.8 352 939.867 352 974C352 1002.8 350.4 1029.73 348.267 1035.2C347.467 1037.33 346 1036 338.533 1026.27L329.867 1014.67L331.467 998.667C332.4 989.867 333.867 972.533 334.667 960C335.467 947.6 337.333 931.467 338.667 924.133C340.133 916.8 342 901.467 342.667 890C344.4 866 346.8 849.2 351.333 831.333C353.067 824.4 354.933 815.333 355.333 811.333C357.2 796.533 360 788 370.933 763.6C375.2 753.867 372.8 756 367.067 767.067C359.6 781.067 355.2 795.067 353.467 809.333C352.667 815.867 350.267 828.533 348.133 837.333C343.467 856.933 343.067 859.867 341.333 887.333C340.267 903.6 338.8 913.6 335.867 925.333C333.733 934.133 331.067 949.067 330 958.667C327.067 984.933 325.2 996.667 323.867 995.867C323.2 995.467 322.8 996.267 322.933 997.6C322.933 998.933 322.933 1002.13 322.8 1004.67L322.533 1009.33L319.2 1005.6C316.133 1001.87 316 1001.2 316.933 991.6C318.533 976.267 318 957.2 315.2 932C313.067 913.467 312.667 899.6 312.8 856C312.8 795.6 313.467 789.067 322 770C326.933 758.933 346.533 728.267 360.933 709.2C367.2 700.667 374.133 689.067 388.667 662.667C392.133 656.4 400 632 400 627.6C400 627.2 400.267 627.2 400.667 627.467C400.933 627.867 400.4 634.4 399.333 642ZM108.933 765.333C114.533 769.067 111.733 779.733 103.867 784.267C101.6 785.6 98.6667 788.933 97.2 791.6C94 798 90.8 799.6 84 798.533C76.9334 797.333 75.4667 794.533 75.3334 781.733C75.3334 772.4 75.6 771.067 78.6667 768C84.5334 762.133 101.733 760.667 108.933 765.333ZM114.8 791.067C116.667 792.267 121.733 797.067 126 801.6C130.133 806.267 134.533 810 135.6 810C136.933 810 136.133 811.733 133.067 815.067C130.533 817.867 127.333 822.133 125.867 824.4C124.533 826.8 123.067 828.667 122.533 828.667C122 828.667 120.133 826.667 118.267 824.133C116.4 821.733 111.6 817.733 107.733 815.2C103.867 812.8 100.267 810.267 99.8667 809.467C97.8667 806.667 106.4 788.667 109.733 788.667C110.667 788.667 112.933 789.733 114.8 791.067ZM260 836.667C263.2 839.867 263.2 840.667 260.8 846.667C258.4 852.267 254.267 852.8 248.8 848.533C246.8 846.933 244.667 846.267 243.733 846.8C239.6 849.333 185.867 899.733 169.6 916.267C159.467 926.667 151.733 938.267 147.733 948.933C145.067 956.533 139.6 962.8 137.2 961.2C135.067 959.867 136 953.467 139.333 946.267C141.067 942.4 148.933 929.733 156.667 918.133C177.067 887.467 196.133 869.467 224.4 854C233.067 849.2 243.2 842.8 246.8 839.6C254.4 833.333 256.267 832.933 260 836.667ZM187.733 870.133C187.467 870.667 183.067 874.667 178 878.933C172.8 883.2 167.2 888.133 165.6 889.733C162.133 893.2 160.933 893.333 158.533 890.533C157.067 888.8 157.333 887.467 160 882.4C161.733 879.2 166 873.467 169.333 869.867L175.6 863.2L181.867 866.133C185.2 867.867 187.867 869.6 187.733 870.133ZM219.2 881.867C216.667 891.867 218.4 897.867 225.467 903.6C238.533 914.133 241.067 916.8 251.733 931.2C263.467 947.067 287.067 977.6 296.933 989.733C303.067 997.333 303.6 999.867 301.6 1014.4L300.667 1020.8L285.867 1003.73C277.733 994.4 265.467 979.733 258.667 971.333C251.867 962.933 241.333 950.267 235.333 943.333C229.333 936.267 223.333 928.533 222.133 926.133C219.733 921.6 216.267 903.6 215.067 890.267C214.267 881.333 212.4 882.533 211.2 892.8C210.133 902.133 208.933 902.267 209.067 892.8C209.2 886.933 209.867 885.467 214.933 880.267C218.133 876.933 220.8 874.4 220.933 874.533C221.067 874.533 220.267 877.867 219.2 881.867ZM206.4 892.133C205.2 895.467 205.467 897.467 207.867 903.733C213.2 918.267 210.667 920.267 199.067 910.8C195.2 907.467 191.2 904.667 190.267 904.267C189.333 904 190.533 902.133 193.333 899.867C195.867 897.733 200.133 894.133 202.667 891.733C205.2 889.467 207.467 887.733 207.6 887.867C207.867 888 207.333 890 206.4 892.133ZM193.067 912.133C200.133 917.467 206.933 920.667 211.2 920.667C213.333 920.667 214.8 922.133 216.533 925.467L218.8 930.267L215.733 929.6C214 929.333 206.533 926.8 198.933 924.133C183.2 918.533 178.667 918.267 172.933 922.267C170.4 923.867 172.133 921.467 177.333 916.267C182 911.333 186.133 907.333 186.4 907.333C186.667 907.333 189.6 909.467 193.067 912.133ZM210.8 936.667C222 940.133 226.133 943.733 244 965.6C259.867 985.2 290.267 1020.8 303.067 1034.8C307.2 1039.47 310.8 1044 310.8 1044.93C310.933 1045.87 311.2 1049.73 311.333 1053.6L311.6 1060.53L306.267 1056.4C303.333 1054 298.933 1049.2 296.4 1045.73C293.867 1042.27 291.333 1039.33 290.8 1039.33C289.867 1039.33 257.467 1005.73 236 982.533C220.133 965.467 197.333 937.333 197.333 934.933C197.333 933.333 202.133 934 210.8 936.667ZM320.8 1017.73C320.533 1018.93 319.467 1024.4 318.533 1029.6L316.933 1039.2L311.733 1032.4C307.333 1026.4 306.667 1024.67 306.667 1018.13C306.667 1014 307.067 1008.53 307.467 1005.87L308.267 1000.93L314.933 1008.27C318.933 1012.8 321.2 1016.4 320.8 1017.73ZM334.8 1032.67C338.667 1038.13 346.8 1048.4 352.667 1055.33C358.667 1062.27 372.133 1078.8 382.8 1092C393.333 1105.2 408 1122.93 415.333 1131.47C422.667 1140 430.8 1149.73 433.333 1153.07C435.867 1156.53 445.467 1168 454.667 1178.8C472.133 1199.2 479.2 1207.87 496.4 1229.07C502 1236.27 513.867 1250.27 522.4 1260.27C540.667 1281.47 564.133 1311.47 571.2 1322.67C578.4 1333.87 583.067 1344.67 580.667 1344.67C579.6 1344.67 571.6 1339.33 562.933 1332.8C539.067 1314.8 455.733 1228.67 424.267 1189.33C420.133 1184.13 414.667 1177.87 412 1175.33C405.467 1169.07 364.8 1123.2 350 1105.47C343.467 1097.47 335.2 1087.73 331.733 1083.6C318.4 1067.6 318.4 1067.6 318 1060.67L317.6 1054L321.467 1057.2C325.467 1060.67 354.8 1094.67 376.667 1121.33C401.733 1151.87 434 1190.4 443.067 1200.53C448 1206.13 458.133 1217.6 465.6 1226C473.067 1234.4 482.8 1245.2 487.333 1250C491.733 1254.8 497.6 1261.33 500.4 1264.67L505.467 1270.67L501.867 1264C493.867 1249.33 485.733 1238.93 456 1204.67C446.667 1194 435.6 1180.8 431.2 1175.2C426.933 1169.6 414.4 1154.53 403.333 1141.73C381.6 1116.4 344.4 1071.33 338 1062.67C335.867 1059.73 334.133 1056.13 334.267 1054.67C334.4 1052.53 334.4 1052.53 333.867 1054.27C332.8 1057.87 331.333 1057.2 326.667 1051.33L322.4 1045.87L324.133 1033.2C325.067 1026.27 326.267 1021.07 326.667 1021.6C327.2 1022.27 330.8 1027.2 334.8 1032.67Z" fill="black"/>
<path d="M776.133 277.467C776.133 278.933 776.533 279.333 776.933 278.267C777.333 277.333 777.2 276.133 776.8 275.733C776.4 275.2 776 276 776.133 277.467Z" fill="black"/>
<path d="M187.467 853.467C186.133 856.8 187.6 857.333 189.333 854.133C190.133 852.533 190.267 851.333 189.467 851.333C188.8 851.333 187.867 852.267 187.467 853.467Z" fill="black"/>
<path d="M437.867 626.667C438.667 661.2 443.2 729.867 445.867 746.8L447.733 758.667L447.867 742.667C447.867 733.867 447.067 713.467 446 697.333C444.933 681.2 443.067 652.933 441.867 634.667C439.067 591.6 436.933 587.333 437.867 626.667Z" fill="black"/>
<path d="M541.067 635.333C540.533 637.867 539.067 648.667 538 659.333C535.6 680.267 532.667 694.8 527.467 709.333C525.733 714.4 522.933 723.6 521.467 729.467C518.533 741.2 503.067 778.667 492.4 800C488.667 807.333 485.333 815.067 484.8 817.067C484.267 819.333 483.333 820.4 482.4 819.867C481.467 819.333 481.333 819.467 481.867 820.4C482.8 822 468.8 848.8 462.8 856.667C460.933 859.2 456.4 865.733 452.8 871.067C444.667 883.2 428.133 900.267 419.733 905.2C415.467 907.6 412 908.667 409.067 908.4C405.067 908 404.667 907.6 404.8 904C405.067 899.733 411.067 886.533 422 866.667C429.733 852.4 426.667 854 416 870C402.533 890 396 905.067 398.667 910C402.533 917.333 412.933 915.867 426.667 906.4C438.267 898.133 444.133 892.533 453.333 880.667C463.733 866.933 485.333 832.933 485.333 830.133C485.333 829.6 487.733 825.467 490.533 820.933C501.733 803.6 526 741.333 531.333 716C532.4 710.8 534.8 700.667 536.667 693.333C540.267 679.467 543.2 650.933 542.4 638C542 631.2 541.867 630.933 541.067 635.333Z" fill="black"/>
<path d="M434.667 176.267C431.333 176.667 428.133 177.333 427.6 178C425.467 180 428 184.533 431.867 185.333C434.933 186 435.867 187.067 436.533 190.667C437.067 193.067 438.4 195.467 439.467 195.867C443.333 197.333 455.867 196.667 457.333 194.933C461.867 189.6 466.667 182.8 466.667 181.867C466.667 181.2 465.467 179.467 464 178C461.733 175.733 459.733 175.333 451.067 175.6C445.333 175.733 438 176 434.667 176.267ZM458.4 185.6C458.8 186.933 456.267 187.333 448.8 187.333C440.533 187.333 438.667 186.933 438.667 185.333C438.667 183.6 440.267 183.333 448.267 183.6C454.4 183.867 458 184.533 458.4 185.6Z" fill="black"/>
<path d="M369.867 602.267C368.667 604.667 362.8 613.867 356.933 622.533C346.667 637.867 330.267 666 331.067 666.8C331.733 667.6 340.267 656 354.933 634.267C369.867 612 372.667 607.2 374 601.6C375.333 596.533 372.533 596.933 369.867 602.267Z" fill="black"/>
<path d="M770.667 973.6C758.267 975.6 725.6 982.933 716.667 985.6C701.6 990.4 667.733 1007.6 669.733 1009.47C670 1009.73 680.8 1005.87 693.6 1000.67C726 987.867 765.467 978 784.8 978C797.6 978 819.6 981.6 824.533 984.4C830 987.467 834.667 996.933 834.667 1004.67C834.667 1014.13 831.067 1028.8 827.867 1032.13C826.267 1033.87 825.333 1036.4 825.6 1038.27C826 1041.2 826.533 1041.33 834.667 1041.2C839.467 1041.07 849.6 1039.33 857.333 1037.47C874.533 1033.2 886.8 1033.07 898.667 1036.8C919.333 1043.2 931.2 1044.8 970.667 1046C1012.93 1047.33 1037.07 1048.8 1072.67 1052.67C1110.53 1056.8 1126 1057.87 1168 1059.33C1205.87 1060.8 1219.47 1061.87 1261.47 1066.8C1272.13 1068.13 1281.87 1068.8 1283.07 1068.27C1284.27 1067.87 1285.33 1066.27 1285.33 1064.8C1285.33 1061.87 1283.07 1061.2 1268.67 1060C1263.6 1059.6 1251.2 1058.27 1241.33 1057.33C1221.73 1055.2 1193.73 1053.33 1149.33 1051.33C1133.6 1050.53 1102.4 1048.53 1080 1046.67C1057.6 1044.93 1016 1042.13 987.333 1040.67C937.333 1038 909.067 1034.93 894 1030.8C880.8 1027.07 877.333 1027.07 862.667 1030.67C854.933 1032.53 845.467 1034.4 841.467 1034.93L834.267 1035.73L835.067 1031.87C835.333 1029.73 836.667 1023.73 837.867 1018.67C840.267 1007.73 840.667 995.067 838.533 990.933C835.6 985.2 828.8 979.333 822.8 977.333C811.867 973.733 782.533 971.6 770.667 973.6Z" fill="black"/>
<path d="M287.467 1054.27C287.2 1055.2 285.867 1060.13 284.667 1065.33C281.467 1078.93 256 1134.13 244.667 1152C238.667 1161.47 223.067 1177.07 216.133 1180.53C206.933 1185.2 184.933 1191.47 174.8 1192.27C165.467 1192.93 163.733 1192.67 152.667 1188.27C120.133 1175.47 93.8667 1174.8 84.6667 1186.53C82.9333 1188.8 81.6 1190.8 81.8667 1190.93C82.1333 1191.2 86.5333 1189.6 91.7333 1187.33C106.667 1180.93 118.267 1182.13 153.733 1193.73L165.333 1197.6L154.4 1199.07C139.067 1201.33 120.133 1201.07 106.667 1198.53C100.4 1197.47 90.5333 1196.27 84.6667 1196C78.8 1195.73 69.8667 1194.67 64.6667 1193.47C40.9333 1188.13 27.6 1186.93 -20.5333 1186.13C-77.2 1185.2 -80 1185.33 -80 1188.8C-80 1191.2 -78.6667 1191.33 -53.3333 1191.33C-14.1333 1191.33 24.5333 1193.6 46.6667 1197.33C95.4667 1205.47 133.333 1208.8 148.667 1206.27C178.133 1201.47 217.867 1187.33 230.133 1177.33C245.6 1164.67 259.6 1142.27 274.267 1106.93C285.467 1079.87 290.667 1064.53 290.667 1058.27C290.667 1053.07 288.533 1050.53 287.467 1054.27Z" fill="black"/>
<path d="M345.467 1121.47C345.467 1122.93 345.867 1123.33 346.267 1122.27C346.667 1121.33 346.533 1120.13 346.133 1119.73C345.733 1119.2 345.333 1120 345.467 1121.47Z" fill="black"/>
<path d="M344.267 1127.33C344.267 1129.2 344.533 1129.87 344.933 1128.93C345.2 1128.13 345.2 1126.53 344.933 1125.6C344.533 1124.8 344.267 1125.47 344.267 1127.33Z" fill="black"/>
</g>
<defs>
<clipPath id="clip0_2_2">
<rect width="1020" height="1362" fill="white"/>
</clipPath>
</defs>
</svg>
